<?xml version="1.0" standalone="no"?>
<!DOCTYPE svg PUBLIC "-//W3C//DTD SVG 20010904//EN"
 "http://www.w3.org/TR/2001/REC-SVG-20010904/DTD/svg10.dtd">
<svg version="1.0" xmlns="http://www.w3.org/2000/svg"
 width="5000.000000pt" height="2500.000000pt" viewBox="0 0 5000.000000 2500.000000"
 preserveAspectRatio="xMidYMid meet">

<g transform="translate(0.000000,2500.000000) scale(0.100000,-0.100000)"
fill="#000000" stroke="none">
<path d="M15818 17022 c19 -13 17 -76 -6 -177 -12 -50 -40 -182 -62 -295 -23
-113 -50 -241 -61 -285 -19 -84 -68 -306 -75 -339 -17 -87 -108 -518 -134
-631 -31 -135 -52 -231 -124 -565 -37 -168 -73 -334 -82 -370 -9 -36 -21 -92
-29 -125 -7 -33 -18 -82 -24 -110 -6 -27 -16 -70 -21 -95 -5 -25 -16 -76 -24
-115 -8 -38 -24 -113 -35 -165 -11 -52 -37 -167 -57 -255 -19 -88 -42 -189
-49 -225 -8 -36 -28 -129 -44 -207 -28 -128 -84 -394 -96 -447 -18 -91 -38
-175 -50 -224 -9 -31 -27 -111 -40 -177 -107 -514 -140 -668 -155 -725 -6 -25
-17 -72 -25 -105 -7 -33 -20 -93 -29 -132 -9 -40 -18 -85 -21 -100 -5 -29 -45
-220 -49 -238 -2 -5 -6 -28 -10 -50 -5 -22 -21 -98 -36 -170 -16 -71 -31 -141
-34 -155 -3 -14 -7 -34 -10 -45 -9 -35 -25 -99 -30 -125 -84 -407 -97 -467
-141 -670 -50 -227 -74 -341 -79 -367 -7 -35 -72 -349 -121 -588 -64 -307
-126 -662 -123 -712 1 -34 6 -44 27 -53 41 -19 149 -24 260 -11 120 14 458 82
551 111 36 11 121 35 189 55 218 62 352 106 551 182 230 87 441 172 455 183 6
4 53 26 105 48 179 76 690 333 730 367 8 7 51 32 94 55 124 67 395 236 549
343 157 108 286 200 300 213 7 5 66 52 132 102 153 118 256 203 375 309 150
135 523 516 617 631 47 57 95 116 108 131 68 76 288 392 343 491 14 25 38 65
54 89 16 24 52 89 80 145 199 395 285 679 337 1112 29 242 -14 579 -109 857
-103 305 -287 575 -561 828 -415 383 -1046 667 -1742 784 -87 14 -189 27 -227
28 -39 1 -70 5 -70 10 0 4 -12 6 -27 6 -24 -2 -25 -2 -5 -6 12 -3 19 -9 16
-15 -5 -7 4 -9 25 -6 17 2 31 1 31 -4 0 -4 7 -8 15 -8 8 0 15 5 15 10 0 6 6
10 12 10 7 0 1 -11 -14 -25 -15 -14 -32 -25 -38 -25 -6 0 -8 -5 -4 -12 4 -7 3
-8 -5 -4 -6 4 -9 11 -6 16 3 5 0 10 -7 13 -7 2 -3 2 10 0 12 -2 22 2 22 8 0 8
-12 10 -35 6 -19 -3 -37 -1 -41 4 -7 12 -45 8 -60 -6 -5 -5 -13 -18 -17 -28
-4 -10 -12 -15 -18 -12 -6 4 -8 14 -5 22 3 8 1 11 -4 8 -6 -3 -10 -13 -10 -22
0 -11 -5 -9 -19 8 -20 24 -24 9 -7 -21 7 -12 6 -12 -4 -3 -7 6 -18 10 -24 9
-6 -2 -8 -1 -3 1 4 3 7 9 7 15 0 5 -12 0 -26 -11 -15 -12 -32 -21 -38 -21 -6
0 -3 7 6 14 10 7 15 16 12 19 -3 3 -14 -3 -25 -14 -11 -11 -25 -17 -31 -13 -7
5 -8 3 -3 -6 4 -7 2 -16 -5 -20 -9 -5 -9 -9 -1 -14 6 -4 15 3 20 16 7 16 10
18 10 6 1 -9 -4 -20 -11 -24 -8 -5 -6 -10 8 -16 18 -7 18 -8 -1 -6 -11 2 -25
-1 -32 -5 -6 -4 -14 -3 -18 3 -3 5 1 10 11 10 12 0 14 3 5 13 -6 8 -9 23 -7
34 4 18 2 19 -19 9 -21 -9 -21 -12 -6 -23 14 -10 11 -12 -17 -8 -19 2 -30 0
-26 -6 3 -5 9 -7 14 -4 4 3 13 -2 19 -9 9 -11 9 -16 0 -22 -7 -4 -9 -3 -5 4 3
6 2 13 -4 17 -5 3 -10 1 -10 -5 0 -18 -23 -6 -26 13 -1 9 4 20 12 25 11 6 9
10 -9 21 -20 13 -21 13 -8 -2 12 -15 11 -17 -3 -17 -10 0 -14 -4 -11 -10 3 -5
1 -10 -6 -10 -7 0 -2 -12 12 -27 13 -15 17 -22 8 -15 -11 8 -19 8 -26 1 -7 -7
-10 -4 -9 13 1 16 -4 23 -16 22 -11 -1 -14 4 -10 15 5 14 4 14 -11 -1 -17 -17
-23 -33 -9 -24 4 2 14 1 22 -5 11 -6 9 -9 -11 -9 -15 0 -32 -7 -39 -15 -10
-12 -16 -13 -26 -4 -11 9 -18 8 -31 -2 -15 -13 -15 -12 -3 7 7 12 20 21 29 21
43 0 57 15 27 26 -9 4 -13 1 -10 -6 2 -7 -5 -12 -21 -12 -14 0 -25 3 -25 6 0
3 -7 6 -16 6 -15 0 -15 -2 1 -13 16 -12 16 -13 -4 -11 -11 1 -21 6 -21 12 0 5
-4 3 -9 -5 -6 -8 -7 -18 -4 -23 3 -5 -4 -4 -15 2 -11 6 -27 11 -34 10 -7 0 -3
-4 10 -9 27 -11 28 -22 3 -44 -22 -20 -42 -3 -22 17 9 9 10 7 5 -8 -7 -18 -6
-18 9 -6 9 7 14 17 11 22 -7 12 -34 12 -34 0 0 -10 -19 -9 -37 2 -7 5 -16 0
-22 -11 -7 -13 -19 -18 -35 -17 -19 3 -23 -1 -18 -13 5 -14 3 -15 -10 -4 -9 7
-22 11 -29 10 -8 -2 -13 2 -12 8 1 6 -4 11 -12 11 -9 0 -11 -6 -5 -22 5 -14 3
-27 -7 -40 -15 -19 -15 -19 -8 4 5 16 4 21 -4 17 -7 -4 -9 -1 -5 7 3 8 0 18
-7 23 -7 4 -10 3 -5 -4 3 -6 2 -13 -4 -17 -6 -4 -8 -11 -5 -16 10 -15 -47 -32
-67 -20 -23 14 -28 14 -28 -3 0 -8 -4 -18 -10 -21 -5 -3 -7 0 -4 8 3 9 -3 16
-15 20 -12 3 -19 1 -16 -3 10 -17 -35 -22 -51 -6 -21 21 -30 20 -13 -1 12 -15
12 -16 -3 -10 -17 6 -22 -3 -21 -40 1 -7 -4 -10 -9 -7 -5 3 -7 12 -4 20 4 11
2 11 -13 2 -11 -6 -17 -18 -14 -25 3 -7 0 -13 -6 -13 -6 0 -10 5 -9 12 2 6
-11 14 -28 18 -28 6 -31 5 -31 -17 0 -17 4 -23 14 -19 8 3 18 6 21 6 4 0 0 5
-8 10 -9 6 -10 10 -3 10 22 0 24 -19 3 -30 -26 -14 -54 4 -45 29 4 13 2 12 -9
-1 -15 -20 -31 -24 -20 -5 5 8 2 8 -9 -2 -9 -7 -17 -20 -17 -28 0 -22 -30 4
-31 26 0 10 -2 11 -6 4 -9 -24 -24 -13 -20 15 81 508 127 809 151 997 14 105
30 215 35 245 45 248 77 897 48 979 -14 39 -48 67 -92 76 -20 4 -26 3 -17 -3z
m1412 -2022 c6 -11 8 -20 6 -20 -3 0 -10 9 -16 20 -6 11 -8 20 -6 20 3 0 10
-9 16 -20z m-157 -16 c24 -24 29 -52 6 -38 -5 3 -7 10 -4 15 10 15 -12 10 -29
-7 -9 -8 -16 -11 -16 -5 0 5 7 14 15 18 10 6 11 13 5 23 -6 8 -10 10 -10 3 0
-7 -9 -9 -22 -5 -20 5 -21 3 -11 -10 10 -12 10 -15 -2 -15 -23 0 -18 27 8 37
32 13 32 13 60 -16z m115 12 c-7 -8 -15 -12 -17 -11 -5 6 10 25 20 25 5 0 4
-6 -3 -14z m12 -30 c0 -2 -8 -10 -17 -17 -16 -13 -17 -12 -4 4 13 16 21 21 21
13z m-327 -33 c-3 -6 -11 -9 -19 -6 -20 7 -17 19 5 19 11 0 17 -6 14 -13z m48
-10 c13 -16 12 -17 -3 -4 -10 7 -18 15 -18 17 0 8 8 3 21 -13z m-431 -53 c0
-5 -2 -10 -4 -10 -3 0 -8 5 -11 10 -3 6 -1 10 4 10 6 0 11 -4 11 -10z m-113
-42 c-3 -8 -6 -5 -6 6 -1 11 2 17 5 13 3 -3 4 -12 1 -19z m-31 -6 c0 -10 -6
-19 -13 -19 -8 0 -9 6 -2 19 5 10 11 18 12 18 2 0 3 -8 3 -18z m-54 -34 c-6
-6 -7 0 -4 19 5 21 7 23 10 9 2 -10 0 -22 -6 -28z m-28 13 c3 -5 -1 -14 -8
-20 -12 -10 -14 -9 -11 6 2 10 4 19 4 21 2 5 10 2 15 -7z m-183 -54 c-10 -9
-11 -8 -5 6 3 10 9 15 12 12 3 -3 0 -11 -7 -18z m-65 -8 c3 -5 -6 -5 -20 1
-18 6 -26 6 -26 -1 0 -6 -5 -7 -11 -3 -8 5 -8 9 1 14 14 9 48 2 56 -11z m24
11 c0 -5 -2 -10 -4 -10 -3 0 -8 5 -11 10 -3 6 -1 10 4 10 6 0 11 -4 11 -10z
m-236 -67 c4 -10 4 -14 0 -10 -4 4 -14 1 -22 -6 -13 -9 -14 -9 -8 1 4 7 2 12
-6 13 -7 0 -4 4 7 9 11 5 21 9 21 9 1 1 5 -7 8 -16z m-78 -4 c3 -6 1 -16 -6
-22 -10 -9 -12 -8 -7 5 3 9 1 19 -6 22 -9 3 -9 5 0 5 6 1 15 -4 19 -10z m171
5 c-3 -3 -12 -4 -19 -1 -8 3 -5 6 6 6 11 1 17 -2 13 -5z m-187 -50 c0 -8 -19
-13 -24 -6 -3 5 1 9 9 9 8 0 15 -2 15 -3z"/>
<path d="M22760 15768 c-344 -92 -628 -167 -632 -167 -5 -1 -8 -284 -8 -631
l0 -630 -515 0 -515 0 0 -525 0 -525 515 0 515 0 0 -1002 c0 -1222 6 -1347 82
-1643 81 -317 216 -563 423 -770 257 -257 593 -412 1045 -482 165 -25 598 -25
758 0 235 37 460 107 637 198 104 53 245 147 245 163 0 7 -99 219 -220 472
-121 252 -221 463 -223 467 -1 5 -42 -16 -91 -47 -182 -114 -326 -151 -591
-151 -157 0 -190 3 -259 23 -277 80 -442 265 -510 572 -20 93 -21 113 -21
1145 l0 1050 788 3 787 2 0 525 0 525 -787 2 -788 3 -5 795 -5 795 -625 -167z"/>
<path d="M16989 15033 c-12 -16 -12 -17 2 -6 9 7 20 9 24 5 5 -4 5 -1 1 6 -9
16 -11 15 -27 -5z"/>
<path d="M12250 14942 c0 -5 7 -9 15 -9 8 0 12 4 9 9 -3 4 -9 8 -15 8 -5 0 -9
-4 -9 -8z"/>
<path d="M12305 14939 c-4 -6 -5 -12 -2 -15 2 -3 7 2 10 11 7 17 1 20 -8 4z"/>
<path d="M16635 14930 c3 -5 8 -10 11 -10 2 0 4 5 4 10 0 6 -5 10 -11 10 -5 0
-7 -4 -4 -10z"/>
<path d="M12080 14926 c0 -2 7 -7 16 -10 8 -3 12 -2 9 4 -6 10 -25 14 -25 6z"/>
<path d="M12208 14898 c5 -5 16 -8 23 -6 8 3 3 7 -10 11 -17 4 -21 3 -13 -5z"/>
<path d="M12173 14887 c0 -8 6 -14 14 -14 9 0 10 4 2 14 -6 7 -12 13 -14 13
-1 0 -2 -6 -2 -13z"/>
<path d="M12268 14893 c7 -3 16 -2 19 1 4 3 -2 6 -13 5 -11 0 -14 -3 -6 -6z"/>
<path d="M12070 14879 c0 -5 5 -7 10 -4 6 3 10 8 10 11 0 2 -4 4 -10 4 -5 0
-10 -5 -10 -11z"/>
<path d="M12315 14880 c3 -5 8 -10 11 -10 2 0 4 5 4 10 0 6 -5 10 -11 10 -5 0
-7 -4 -4 -10z"/>
<path d="M16546 14878 c3 -5 10 -6 15 -3 13 9 11 12 -6 12 -8 0 -12 -4 -9 -9z"/>
<path d="M12005 14870 c-3 -5 -11 -8 -18 -6 -7 1 -9 1 -4 -1 4 -3 7 -9 7 -14
0 -6 -3 -8 -8 -5 -4 2 -16 -2 -27 -10 -12 -9 -14 -14 -5 -14 10 0 8 -4 -4 -13
-11 -8 -16 -20 -13 -28 4 -11 6 -10 6 2 1 22 30 32 47 18 11 -9 14 -8 14 4 0
11 7 15 20 12 11 -2 18 0 15 5 -6 9 -31 8 -41 -2 -9 -10 -35 3 -28 13 3 5 10
7 15 4 5 -4 12 1 15 10 5 11 10 13 18 5 15 -12 56 14 43 27 -5 4 -13 0 -18
-10 -6 -9 -15 -15 -20 -12 -5 4 -7 11 -4 16 4 5 4 9 1 9 -3 0 -7 -4 -11 -10z"/>
<path d="M12092 14864 c-7 -8 -8 -14 -3 -14 10 0 25 19 20 25 -2 1 -10 -3 -17
-11z"/>
<path d="M12225 14872 c3 -3 0 -11 -6 -18 -7 -9 -6 -14 3 -20 7 -4 10 -3 5 1
-4 5 0 16 8 25 13 15 13 17 0 17 -8 0 -13 -3 -10 -5z"/>
<path d="M12294 14865 c3 -21 16 -31 16 -12 0 9 -4 18 -9 21 -5 4 -8 -1 -7 -9z"/>
<path d="M12365 14870 c3 -5 8 -10 11 -10 2 0 4 5 4 10 0 6 -5 10 -11 10 -5 0
-7 -4 -4 -10z"/>
<path d="M12121 14854 c0 -11 3 -14 6 -6 3 7 2 16 -1 19 -3 4 -6 -2 -5 -13z"/>
<path d="M11925 14849 c-4 -6 -5 -12 -2 -15 2 -3 7 2 10 11 7 17 1 20 -8 4z"/>
<path d="M12150 14850 c-9 -6 -10 -10 -3 -10 6 0 15 5 18 10 8 12 4 12 -15 0z"/>
<path d="M12182 14848 c-7 -7 -12 -19 -12 -28 0 -9 -5 -21 -10 -28 -6 -6 -7
-10 -4 -7 4 3 12 0 19 -5 10 -8 39 -16 68 -19 13 -2 7 -19 -10 -25 -9 -4 -21
-1 -26 6 -6 9 -7 8 -3 -5 4 -12 2 -17 -6 -15 -7 3 -13 10 -13 16 0 7 -4 12
-10 11 -5 -1 -9 -6 -7 -11 2 -6 -4 -8 -15 -3 -10 4 -22 8 -28 9 -48 12 -54 36
-9 36 13 0 24 4 24 9 0 5 -9 7 -20 4 -12 -3 -20 0 -20 7 0 7 -8 9 -20 5 -14
-4 -20 -2 -20 9 0 8 -4 17 -8 20 -5 3 -8 -5 -8 -17 1 -15 -5 -22 -19 -22 -11
0 -19 -6 -17 -12 3 -18 -9 -16 -24 5 -13 16 -13 16 -14 0 0 -10 -4 -18 -10
-18 -5 0 -10 -4 -10 -9 0 -5 23 -8 50 -7 43 2 50 0 50 -16 0 -11 5 -16 10 -13
6 4 8 11 4 16 -3 5 -8 21 -10 36 -4 22 -3 24 10 14 8 -7 13 -21 11 -32 -3 -13
0 -17 8 -12 7 4 6 0 -2 -10 -8 -10 -9 -17 -3 -17 6 0 14 5 17 10 4 6 11 7 17
4 7 -5 5 -12 -7 -20 -12 -9 -22 -10 -30 -4 -8 6 -18 4 -31 -6 -18 -15 -18 -15
8 -11 20 3 29 -2 39 -20 14 -26 35 -26 33 1 -1 9 2 16 7 16 5 0 9 -5 9 -12 0
-7 5 -6 13 4 9 11 19 13 37 7 25 -9 25 -9 -2 -5 -15 2 -25 -1 -22 -5 3 -5 14
-9 25 -9 10 0 19 -4 19 -9 0 -6 9 -8 20 -6 12 2 20 -2 20 -9 0 -16 -37 -13
-69 4 -17 9 -26 9 -37 -1 -12 -10 -12 -14 -2 -20 21 -14 28 -10 21 9 -6 16 -6
16 10 0 19 -19 23 -33 5 -22 -8 5 -9 2 -4 -11 4 -10 2 -21 -4 -25 -8 -5 -6 -9
5 -13 9 -4 13 -3 10 2 -3 5 5 22 18 37 l24 28 31 -23 c28 -20 30 -24 20 -47
-11 -23 -13 -24 -20 -7 -4 10 -5 0 -1 -22 7 -50 12 -58 29 -51 8 3 15 1 15 -4
1 -6 2 -14 3 -20 2 -20 21 -14 24 8 4 24 32 31 32 7 0 -8 -5 -15 -11 -15 -8 0
-8 -4 1 -15 6 -8 10 -20 7 -27 -3 -8 -6 -6 -6 5 -1 12 -7 17 -18 15 -10 -1
-24 2 -32 6 -11 7 -13 5 -8 -8 4 -10 3 -15 -3 -11 -6 4 -9 13 -8 20 2 8 -1 14
-7 14 -5 1 -10 -7 -10 -16 0 -10 -9 -19 -20 -20 -11 -2 -14 0 -7 3 6 3 12 15
12 27 0 16 -3 18 -9 9 -7 -11 -9 -11 -14 1 -4 12 0 14 21 11 26 -4 26 -3 8 11
-11 8 -16 15 -10 16 5 0 0 4 -11 9 -19 8 -19 9 -1 9 15 1 16 4 6 16 -13 16
-31 20 -29 8 3 -20 -2 -32 -17 -35 -14 -3 -13 -7 6 -30 15 -20 17 -26 6 -22
-8 3 -18 14 -21 25 -7 21 -20 25 -30 9 -3 -6 0 -13 9 -16 9 -3 12 -12 9 -21
-4 -10 -2 -14 4 -10 5 3 10 0 10 -7 0 -15 -26 -10 -28 5 -1 5 -2 15 -3 22 -1
6 -8 11 -16 9 -11 -3 -11 0 0 12 13 17 5 35 -27 62 -11 9 -8 12 13 12 14 0 21
-4 15 -7 -8 -5 -7 -13 3 -26 12 -17 17 -18 40 -6 14 8 24 19 23 25 -1 6 6 10
16 10 19 -2 21 4 7 26 -9 13 -10 13 -10 0 0 -13 -1 -13 -10 0 -5 8 -10 12 -11
8 -1 -5 -2 -11 -3 -15 -1 -5 -10 -19 -20 -33 -10 -14 -16 -17 -13 -8 7 21 -20
51 -40 44 -7 -3 -16 1 -19 9 -5 12 -9 12 -28 0 -20 -13 -22 -13 -23 8 -2 16 0
18 7 8 7 -12 12 -12 23 -3 7 7 17 9 20 5 4 -3 7 -1 7 5 0 5 -3 12 -7 15 -5 2
-2 2 5 1 35 -9 -13 37 -56 53 -17 6 -34 8 -37 3 -3 -4 -22 -7 -42 -5 -23 1
-42 -3 -48 -11 -7 -10 -14 -11 -25 -3 -13 9 -13 10 1 6 11 -4 21 4 30 19 7 14
15 20 19 14 14 -22 54 -20 72 4 15 21 15 23 -3 34 -12 8 -19 8 -19 2 0 -5 5
-10 12 -10 6 0 3 -6 -8 -14 -20 -15 -50 -3 -38 15 3 5 -2 9 -10 9 -9 0 -16 5
-16 12 0 6 -3 8 -6 5 -4 -3 -15 -2 -26 4 -16 9 -19 7 -16 -7 2 -13 -4 -18 -21
-19 -13 0 -26 -7 -29 -15 -5 -13 -3 -13 12 -1 14 12 19 12 25 2 7 -10 12 -8
23 8 13 19 17 20 28 6 9 -11 9 -15 1 -15 -7 0 -9 -4 -6 -10 3 -5 0 -7 -8 -4
-8 3 -18 1 -22 -5 -3 -6 -1 -11 6 -11 7 0 9 -3 6 -6 -4 -4 -13 -2 -20 5 -12 9
-14 6 -12 -14 2 -16 -2 -25 -11 -25 -8 0 -11 6 -7 17 5 12 3 14 -7 8 -8 -5
-11 -4 -7 1 3 6 2 16 -4 24 -6 11 -9 7 -9 -15 0 -16 -4 -25 -8 -19 -4 7 -18
11 -32 10 -20 -1 -25 -6 -25 -28 -1 -15 -4 -30 -8 -34 -4 -4 -7 -12 -7 -18 0
-6 5 -4 11 4 7 10 12 11 15 3 4 -8 14 -9 35 -3 21 6 27 5 23 -2 -5 -7 -1 -9 9
-5 28 11 19 -1 -14 -17 -25 -12 -29 -13 -19 -1 9 11 6 14 -19 13 -27 -1 -31
-5 -31 -29 0 -15 -4 -30 -8 -33 -4 -2 -6 11 -4 31 4 27 1 34 -8 28 -9 -5 -11
-4 -6 4 4 6 10 27 12 47 2 19 5 38 5 42 3 20 -2 42 -10 42 -5 0 -8 -8 -7 -17
0 -10 -3 -18 -9 -18 -26 -1 -50 -35 -24 -35 5 0 7 5 3 12 -5 8 -2 9 9 5 10 -4
17 -1 17 5 0 6 3 8 6 5 4 -4 2 -12 -4 -19 -6 -7 -11 -17 -11 -23 -1 -5 -5 -10
-10 -10 -5 0 -13 -3 -17 -7 -4 -5 -12 -8 -18 -8 -6 0 -5 4 3 9 11 7 10 11 -6
20 -18 9 -20 7 -17 -16 1 -15 -2 -35 -7 -44 -6 -11 -5 -20 1 -24 5 -3 10 -13
10 -21 0 -8 -5 -12 -10 -9 -6 4 -8 10 -5 15 3 5 1 11 -5 15 -6 4 -7 11 -4 17
15 24 12 56 -5 61 -12 3 -17 -2 -19 -17 -1 -17 1 -18 8 -6 8 12 10 11 7 -5 -1
-11 -5 -24 -8 -30 -4 -5 -5 -20 -4 -32 1 -12 -2 -20 -7 -17 -5 4 -7 12 -4 20
6 15 -4 23 -34 29 -16 3 -20 0 -16 -13 8 -25 -9 -46 -41 -48 -40 -3 -40 -3
-23 -14 13 -8 12 -10 -4 -10 -15 0 -16 -3 -6 -15 10 -12 10 -15 0 -15 -7 0
-10 -6 -7 -13 3 -8 -1 -14 -9 -14 -15 0 -19 19 -7 31 9 9 12 75 4 80 -3 2 -7
-6 -8 -17 -5 -44 -11 -62 -22 -59 -6 1 -11 -10 -11 -24 0 -16 4 -23 12 -18 7
4 8 3 4 -4 -4 -7 -13 -12 -20 -12 -35 0 -39 -40 -6 -53 11 -5 9 -6 -5 -6 -34
2 -41 -1 -26 -10 9 -6 4 -8 -18 -7 -31 1 -40 9 -21 21 6 3 10 1 10 -6 0 -20
20 4 25 29 2 12 6 26 9 31 4 5 0 8 -6 7 -21 -3 -38 -16 -38 -29 0 -7 4 -6 10
3 8 13 10 13 10 -1 0 -20 -23 -31 -47 -23 -11 4 -14 3 -7 -3 20 -15 22 -49 4
-60 -13 -9 -17 -8 -17 3 0 8 5 14 10 14 6 0 8 2 5 5 -10 10 -36 -6 -34 -20 3
-22 13 -28 33 -21 21 9 23 8 23 -1 0 -5 -6 -8 -12 -8 -7 0 -12 -9 -11 -19 1
-14 -6 -11 -33 15 -19 18 -35 30 -35 26 -1 -4 -2 -13 -3 -19 -1 -7 -8 -12 -15
-10 -7 1 -10 -2 -6 -8 8 -13 11 -13 29 5 8 8 17 11 20 6 3 -5 -10 -19 -30 -30
-31 -18 -35 -19 -30 -5 5 14 4 15 -9 4 -16 -13 -21 -35 -6 -26 4 3 16 -3 26
-14 10 -12 13 -20 7 -20 -7 0 -12 5 -12 10 0 6 -7 10 -16 10 -9 0 -23 8 -31
18 -13 16 -13 16 -5 -3 5 -11 8 -28 7 -37 -2 -10 1 -20 6 -24 11 -7 2 -24 -13
-24 -5 0 -7 7 -4 16 6 15 4 15 -10 3 -15 -12 -14 -15 7 -33 18 -15 19 -18 5
-13 -14 6 -17 3 -12 -8 3 -10 2 -13 -5 -10 -6 4 -8 13 -5 20 3 8 -2 19 -10 26
-13 10 -14 8 -10 -16 3 -15 13 -36 22 -46 9 -11 12 -19 7 -19 -6 0 -14 7 -17
17 -6 14 -8 14 -22 -3 -14 -18 -14 -18 -4 5 10 19 9 25 -1 32 -11 7 -11 9 -1
9 7 0 10 5 6 12 -5 7 -11 5 -21 -7 -16 -23 -17 -39 -2 -29 6 3 4 -8 -5 -24
-16 -30 -8 -51 14 -37 6 3 7 -1 4 -10 -5 -13 -9 -13 -22 -3 -17 15 -64 11 -74
-6 -10 -14 -10 -27 0 -23 4 1 7 -2 7 -8 0 -5 -8 -10 -17 -10 -24 -2 -36 -15
-15 -15 10 0 17 -5 17 -11 0 -5 -4 -8 -9 -5 -5 4 -12 0 -14 -6 -4 -10 -6 -9
-6 1 -1 11 -4 11 -18 0 -15 -12 -16 -12 -10 4 3 9 2 17 -3 17 -14 0 -12 -38 2
-42 6 -2 8 -10 4 -17 -6 -9 -11 -8 -23 6 -13 17 -13 16 -4 -4 15 -31 14 -34
-14 -29 -14 3 -25 0 -25 -6 0 -5 7 -7 16 -4 8 3 12 2 9 -4 -3 -6 -12 -10 -19
-10 -9 0 -13 -10 -11 -28 2 -31 -38 -72 -51 -50 -5 7 -3 8 6 3 8 -5 11 -4 7 2
-4 6 0 13 8 17 8 3 15 11 14 18 0 10 -2 10 -6 0 -2 -6 -9 -10 -14 -6 -5 3 -9
0 -9 -6 0 -6 -4 -9 -9 -6 -5 3 -15 -2 -22 -11 -8 -10 -9 -14 -2 -10 21 13 24
-12 3 -30 -11 -10 -20 -23 -20 -30 0 -14 -11 -17 -45 -13 -11 1 -17 -1 -13 -6
4 -4 21 -7 38 -6 16 0 30 -4 30 -10 0 -5 -6 -8 -13 -5 -8 3 -20 1 -28 -4 -10
-6 -7 -9 13 -9 15 0 30 5 33 10 9 15 25 12 25 -5 0 -9 -6 -12 -15 -8 -9 3 -15
2 -14 -3 3 -13 -12 -44 -20 -44 -4 0 -8 7 -8 15 0 8 4 12 8 9 4 -2 10 0 14 6
3 5 0 10 -7 10 -15 0 -48 -20 -33 -20 6 0 -1 -6 -15 -13 -14 -7 -26 -21 -28
-31 -3 -11 0 -16 7 -12 6 4 11 2 11 -3 0 -6 -5 -11 -10 -11 -6 0 -8 -12 -6
-26 4 -21 3 -24 -10 -14 -22 19 -45 -5 -38 -39 l6 -26 -16 23 c-10 12 -23 22
-29 22 -7 0 -6 -4 3 -10 12 -8 12 -10 -5 -11 -14 0 -16 -2 -5 -6 8 -3 23 -15
35 -26 11 -11 14 -17 7 -13 -17 10 -54 -3 -46 -16 5 -7 2 -9 -8 -5 -12 4 -14
1 -11 -14 3 -10 10 -19 15 -19 5 0 6 5 2 12 -4 6 -3 8 4 4 5 -3 12 -1 14 5 2
7 9 5 17 -5 12 -14 12 -16 -3 -10 -12 5 -15 2 -10 -12 4 -14 3 -15 -4 -6 -7
11 -12 11 -24 -2 -9 -8 -18 -13 -21 -10 -3 3 -2 -10 3 -29 6 -28 5 -34 -6 -30
-7 2 -10 11 -7 19 3 8 0 14 -6 14 -6 0 -11 -5 -11 -11 0 -8 -6 -7 -17 2 -17
13 -17 12 -2 -10 8 -13 23 -25 33 -27 10 -1 24 -8 30 -15 8 -9 6 -9 -11 0 -21
11 -27 8 -24 -11 0 -5 -4 -8 -10 -8 -6 0 -8 -8 -5 -17 5 -16 5 -16 -8 0 -12
15 -18 16 -35 7 -12 -6 -21 -12 -21 -13 0 -3 34 -8 67 -11 25 -1 19 -11 -16
-21 -16 -5 -21 -4 -17 4 4 6 1 11 -8 11 -21 0 -31 -19 -17 -33 9 -9 11 -7 6 8
-6 19 -6 19 8 3 8 -10 18 -14 22 -10 5 4 5 2 1 -5 -3 -6 -2 -14 4 -18 5 -3 10
-1 10 4 0 6 8 11 17 11 14 0 13 -3 -5 -16 -22 -15 -22 -41 0 -28 7 4 8 2 4 -5
-4 -6 -12 -9 -17 -6 -9 6 -11 1 -11 -53 0 -18 -3 -30 -6 -27 -8 8 -32 -16 -26
-26 3 -5 -2 -12 -10 -15 -9 -3 -13 -11 -9 -17 3 -6 1 -7 -5 -3 -6 4 -8 14 -5
23 5 12 3 14 -8 8 -8 -5 -11 -5 -6 1 5 5 13 9 18 9 17 0 4 19 -14 22 -12 2
-16 -1 -11 -9 4 -7 3 -8 -4 -4 -7 4 -13 -7 -18 -29 -3 -19 -10 -32 -15 -29 -5
3 -6 11 -2 17 4 7 0 6 -10 -2 -9 -7 -17 -19 -17 -25 0 -7 4 -6 9 2 7 11 9 11
14 -2 4 -9 1 -16 -6 -16 -7 0 -4 -5 6 -11 9 -5 21 -8 26 -4 5 3 13 0 17 -6 4
-8 3 -9 -4 -5 -7 4 -12 2 -12 -3 0 -8 -7 -7 -20 1 -14 9 -23 9 -30 2 -15 -15
-20 -66 -9 -80 11 -13 2 -44 -13 -44 -5 0 -6 -4 -3 -10 3 -5 2 -10 -2 -10 -5
0 -9 -11 -9 -24 0 -14 4 -22 10 -19 5 4 7 -1 3 -9 -3 -9 1 -24 9 -35 9 -10 13
-13 10 -7 -3 7 3 23 15 35 l20 24 -18 -30 c-10 -16 -18 -32 -18 -35 0 -3 -6
-4 -12 -4 -7 1 -11 -2 -8 -6 3 -5 -1 -11 -7 -13 -7 -3 -4 -6 7 -6 17 -1 17 -3
5 -11 -8 -5 -11 -10 -6 -10 4 0 0 -8 -11 -17 -10 -10 -12 -13 -4 -8 11 8 13 6
9 -5 -2 -8 -15 -17 -29 -21 -20 -6 -21 -7 -4 -9 19 -1 19 -2 1 -9 -17 -7 -17
-8 -2 -24 12 -12 13 -17 5 -17 -10 0 -10 -3 -1 -12 15 -15 15 -28 1 -28 -5 0
-8 4 -5 9 3 5 -1 12 -9 15 -13 5 -14 2 -3 -17 6 -12 11 -33 9 -46 -2 -14 1
-21 8 -17 5 4 15 -4 21 -16 10 -21 10 -21 -3 -6 -21 26 -30 9 -11 -20 9 -13
12 -22 6 -18 -5 3 -13 -1 -16 -10 -3 -8 -11 -12 -17 -9 -6 4 -10 1 -8 -6 4
-34 0 -42 -16 -29 -13 11 -14 10 -9 -4 9 -23 23 -20 36 9 6 14 15 25 20 25 12
0 10 -10 -8 -27 -20 -21 -15 -58 9 -56 10 0 16 -1 13 -4 -3 -3 -1 -15 5 -26 8
-14 8 -18 -1 -12 -7 4 -10 1 -8 -11 2 -15 -3 -19 -23 -18 -20 0 -25 -4 -21
-15 3 -9 1 -12 -6 -7 -8 4 -8 -3 -2 -25 5 -18 7 -35 5 -40 -3 -4 -1 -10 5 -14
6 -3 13 2 17 11 4 10 2 19 -5 22 -13 4 -17 42 -4 43 4 0 15 2 25 4 9 2 15 -1
11 -6 -3 -5 -9 -7 -14 -4 -5 3 -11 1 -15 -4 -3 -5 7 -22 22 -36 16 -14 24 -25
18 -24 -22 3 -29 -2 -15 -12 12 -8 11 -9 -5 -5 -24 7 -39 -2 -48 -28 -6 -16
-5 -17 8 -6 12 10 18 10 30 0 23 -19 18 -29 -12 -24 -16 2 -23 1 -17 -3 6 -5
10 -15 9 -24 -2 -12 5 -16 28 -15 21 1 31 -4 33 -17 1 -9 -2 -15 -7 -11 -5 3
-6 10 -3 16 5 8 1 9 -10 5 -10 -4 -24 -7 -33 -7 -12 0 -12 -2 -1 -13 7 -8 20
-17 28 -20 8 -4 -2 -5 -22 -3 -21 2 -35 0 -32 -5 3 -5 8 -8 12 -6 4 2 15 -4
25 -15 16 -17 16 -18 -2 -18 -11 0 -22 -4 -26 -9 -7 -13 34 -8 62 7 17 9 23 9
29 0 4 -7 4 -10 -1 -6 -4 4 -16 3 -27 -3 -14 -7 -16 -14 -9 -23 12 -15 7 -52
-7 -49 -6 2 -10 -12 -9 -32 1 -22 5 -31 12 -24 6 6 10 15 10 21 0 6 6 12 13
14 7 1 8 0 3 -2 -5 -3 -7 -17 -5 -30 3 -16 1 -23 -6 -19 -5 3 -10 1 -10 -4 0
-17 21 -13 37 7 13 15 13 15 3 -5 -6 -13 -17 -23 -24 -23 -8 0 -17 -7 -20 -16
-5 -13 -4 -14 7 -6 10 9 18 8 33 -3 10 -8 15 -15 9 -15 -5 0 -3 -5 5 -11 13
-9 13 -10 0 -6 -8 2 -14 9 -13 15 1 5 -4 13 -12 16 -12 4 -14 -2 -12 -27 1
-23 -2 -31 -12 -29 -12 3 -12 0 -1 -12 13 -17 25 -22 16 -7 -3 5 1 14 9 21 10
8 15 9 15 2 0 -6 8 -9 18 -6 9 3 6 -2 -8 -11 -14 -9 -17 -14 -7 -11 13 4 17 0
17 -17 0 -18 -2 -19 -10 -7 -5 8 -10 10 -10 4 0 -15 25 -36 33 -27 4 3 7 1 7
-5 0 -15 -13 -15 -27 -1 -8 8 -13 8 -17 0 -4 -6 -2 -11 3 -11 6 0 10 -3 9 -7
-2 -5 5 -19 15 -33 9 -13 17 -19 17 -13 0 6 -7 19 -16 27 -8 9 -11 16 -5 16 5
0 14 -8 20 -17 5 -10 13 -17 18 -15 4 2 9 -5 10 -15 2 -15 1 -14 -6 2 -8 19
-8 19 -15 -3 -4 -12 -11 -20 -15 -18 -4 3 -8 -1 -8 -9 0 -8 4 -16 9 -16 4 -1
17 -3 28 -4 11 -1 22 -4 25 -5 7 -3 22 -7 36 -9 5 0 7 -6 3 -12 -5 -8 -8 -8
-13 0 -5 8 -13 5 -26 -9 -10 -11 -22 -17 -28 -13 -6 3 -7 1 -3 -6 4 -6 12 -9
17 -6 5 4 9 -1 9 -10 0 -9 4 -14 8 -11 4 2 8 -5 9 -17 0 -12 -1 -16 -4 -9 -3
6 -12 12 -21 11 -11 0 -12 -2 -4 -6 6 -2 10 -9 6 -14 -3 -5 2 -9 11 -9 11 0
15 -5 11 -16 -4 -10 -2 -13 7 -7 6 4 15 8 19 8 12 0 22 15 10 15 -15 0 -15 27
0 36 7 4 8 3 4 -5 -4 -6 -3 -18 4 -26 8 -10 7 -16 -8 -27 -34 -24 -37 -39 -5
-27 15 5 25 7 21 4 -3 -4 0 -22 8 -40 18 -43 18 -49 0 -33 -8 7 -12 16 -9 20
2 5 0 15 -5 24 -8 14 -10 14 -22 -1 -11 -13 -10 -15 4 -9 14 6 16 2 10 -22 -4
-16 -3 -26 1 -22 4 4 16 -3 27 -15 11 -12 17 -17 14 -11 -3 6 1 11 8 11 10 0
12 -8 5 -31 -9 -32 -3 -49 10 -27 6 10 10 9 14 -4 5 -11 3 -14 -5 -9 -8 5 -9
1 -4 -12 4 -10 8 -23 9 -29 1 -5 7 -13 12 -17 6 -4 10 -13 10 -20 0 -7 7 -14
16 -16 18 -3 33 34 18 44 -5 3 -9 0 -9 -5 0 -6 -9 -3 -20 6 -11 10 -20 22 -20
27 0 5 9 1 20 -9 19 -17 25 -14 20 10 -1 5 2 6 7 2 4 -5 9 -13 9 -18 1 -5 3
-12 4 -16 1 -5 3 -15 4 -23 0 -8 8 -14 16 -12 11 3 9 -3 -6 -20 -16 -17 -19
-29 -14 -43 l9 -20 1 20 c1 15 3 16 7 5 4 -8 12 -21 20 -28 7 -8 11 -18 8 -23
-4 -5 -1 -9 5 -9 7 0 9 9 5 23 -5 19 -5 20 5 4 9 -14 9 -22 0 -33 -10 -11 -9
-14 6 -15 11 -1 22 -1 27 0 4 0 7 -7 7 -16 0 -13 -3 -14 -12 -5 -7 7 -17 12
-22 12 -6 0 4 -10 21 -21 28 -18 31 -24 23 -42 -10 -21 -10 -21 6 1 24 32 37
27 20 -7 -13 -25 -14 -31 -1 -41 8 -6 19 -9 25 -5 5 3 10 2 10 -4 0 -5 -6 -12
-12 -14 -8 -3 -6 -6 5 -6 9 -1 17 4 17 11 0 6 3 8 6 5 4 -4 1 -13 -6 -22 -15
-18 1 -20 18 -3 7 7 13 9 13 5 1 -4 2 -10 3 -14 1 -5 6 -23 10 -40 4 -20 14
-33 23 -33 13 0 13 -3 3 -15 -13 -15 -8 -19 21 -16 8 1 22 -10 29 -24 10 -18
20 -25 33 -21 15 4 16 2 6 -10 -6 -8 -9 -18 -5 -22 4 -4 13 1 21 11 10 14 14
15 18 4 3 -8 1 -19 -4 -24 -21 -21 397 -245 576 -309 28 -9 55 -21 61 -26 19
-14 211 -76 349 -113 486 -129 946 -175 1510 -154 175 7 571 42 580 51 2 2 17
82 34 178 46 265 59 336 80 445 11 55 62 327 115 605 52 278 102 537 110 575
23 101 48 276 41 284 -4 3 -11 7 -16 7 -5 1 -13 2 -17 3 -5 0 -14 13 -20 27
-10 20 -17 24 -35 19 -15 -4 -18 -3 -8 3 9 7 10 12 2 16 -6 4 -9 11 -6 16 3 5
-5 16 -17 24 -20 14 -24 14 -40 -1 -18 -16 -19 -16 -9 11 15 37 14 38 -9 31
-16 -5 -19 -3 -13 10 8 21 -17 38 -34 23 -10 -8 -13 -5 -13 11 0 11 -4 21 -10
21 -5 0 -10 7 -10 16 0 8 -4 13 -9 10 -5 -3 -12 1 -15 10 -3 8 -10 12 -16 9
-6 -4 -8 -10 -6 -14 3 -4 -1 -8 -9 -8 -10 0 -10 6 3 26 16 25 16 25 -1 12 -12
-9 -17 -10 -17 -2 0 7 -5 9 -12 5 -8 -5 -8 -2 1 10 12 14 12 17 1 14 -8 -2
-14 4 -15 12 0 9 -8 14 -19 12 -11 -2 -15 1 -11 7 4 7 0 8 -11 4 -12 -5 -15
-3 -9 6 6 10 -1 12 -29 8 -20 -3 -39 0 -43 6 -3 6 -1 7 5 3 16 -10 15 7 0 23
-16 15 -17 34 -3 43 6 5 6 8 -2 8 -7 0 -16 -7 -21 -16 -6 -11 -11 -13 -16 -5
-4 6 -2 11 5 11 7 0 9 3 6 7 -4 3 -2 12 4 19 8 10 5 12 -15 8 -15 -2 -26 0
-26 6 0 6 -4 8 -10 5 -5 -3 -7 0 -4 9 3 9 12 12 22 8 14 -5 15 -4 2 10 -14 15
-16 15 -32 -5 -9 -12 -14 -25 -12 -29 2 -3 1 -9 -4 -12 -5 -3 -9 1 -10 9 -1 8
-3 22 -4 30 -1 10 -8 13 -22 9 -15 -4 -17 -3 -8 4 11 7 11 12 -2 25 -19 19
-21 34 -3 18 8 -6 17 -8 21 -4 4 4 4 -1 0 -12 -6 -19 -6 -19 8 -1 13 17 14 16
12 -13 -1 -17 3 -31 8 -31 6 0 8 9 5 20 -3 11 0 20 5 20 6 0 6 6 -1 14 -7 8
-20 13 -29 11 -10 -2 -26 4 -37 12 -20 15 -20 15 3 10 30 -7 28 -1 -9 17 l-30
15 4 -28 c5 -29 -11 -37 -30 -16 -4 4 -2 5 5 1 8 -5 12 0 12 15 0 19 -2 20
-17 8 -9 -8 -14 -9 -10 -3 4 7 0 14 -7 17 -8 3 -17 2 -20 -4 -2 -5 -3 -4 -1 3
1 7 8 12 14 10 18 -4 13 16 -11 40 -16 16 -17 20 -5 15 9 -3 17 -2 17 3 0 6
-7 11 -15 11 -31 3 -35 4 -36 12 0 5 3 12 7 15 4 4 4 1 -1 -7 -5 -10 -4 -12 4
-7 15 9 3 29 -13 23 -17 -7 -43 10 -33 20 5 4 12 1 16 -6 7 -11 12 -8 22 10
12 23 11 23 -6 9 -17 -14 -18 -13 -11 5 4 11 4 16 0 13 -4 -4 -16 -2 -27 3
-16 9 -17 13 -6 20 9 6 10 9 2 9 -6 0 -18 -7 -27 -15 -8 -8 -18 -15 -22 -15
-4 0 -13 -8 -20 -17 -12 -16 -12 -15 -7 7 3 14 11 30 17 35 18 15 27 43 16 50
-6 4 -10 2 -10 -4 0 -12 -27 -8 -40 5 -7 7 -6 11 4 11 8 0 12 -5 9 -10 -3 -6
-1 -7 6 -3 6 4 9 12 6 17 -4 5 -2 9 3 9 15 0 23 28 10 36 -6 4 -8 3 -5 -3 9
-14 -19 -37 -33 -28 -5 3 -10 13 -10 22 0 9 -3 14 -6 10 -4 -3 -14 3 -23 14
-13 16 -21 18 -41 11 l-24 -9 22 -12 c12 -6 22 -16 22 -22 0 -5 -10 -1 -22 10
-16 16 -25 18 -35 10 -10 -9 -9 -4 2 17 20 39 19 47 -5 39 -13 -4 -22 -1 -26
9 -3 9 -12 16 -20 16 -8 0 -11 6 -7 16 6 15 4 15 -20 0 -15 -11 -27 -13 -31
-7 -5 8 33 38 42 33 5 -4 2 10 -7 25 -7 14 -12 15 -23 5 -8 -6 -18 -9 -22 -5
-4 4 -11 1 -16 -7 -7 -11 -10 -11 -10 -2 0 7 7 15 15 18 8 4 15 14 16 23 0 12
2 11 9 -4 7 -18 8 -19 15 -2 9 21 27 23 19 2 -4 -8 -2 -15 3 -15 4 0 9 20 9
44 l1 45 -23 -16 c-22 -14 -24 -14 -26 3 0 11 0 29 1 42 2 21 0 22 -21 11 -19
-9 -21 -9 -10 2 17 19 15 46 -5 54 -15 5 -16 4 -5 -6 6 -7 12 -20 12 -28 -1
-13 -4 -12 -15 3 -13 17 -15 18 -15 3 0 -9 -4 -17 -9 -17 -5 0 -11 -8 -13 -18
-4 -12 1 -18 13 -18 12 0 15 4 9 12 -10 11 -3 24 12 24 5 0 6 -5 3 -10 -3 -6
0 -13 9 -16 9 -3 12 -12 9 -21 -4 -11 -2 -14 5 -9 7 4 12 2 12 -3 0 -6 -5 -11
-11 -11 -5 0 -7 -6 -3 -12 4 -8 3 -10 -2 -5 -5 5 -9 13 -9 18 0 5 -3 8 -6 7
-3 -2 -13 3 -22 11 -14 11 -17 11 -17 0 -1 -10 -3 -10 -10 2 -11 19 -5 62 10
67 5 2 10 8 10 14 0 6 -6 6 -15 -2 -19 -16 -19 -10 0 26 19 37 19 48 -2 65
-15 13 -15 12 -2 -8 12 -20 11 -24 -6 -37 -13 -10 -15 -15 -6 -16 11 0 11 -3
1 -15 -6 -8 -9 -18 -6 -23 3 -6 -2 -16 -12 -23 -15 -12 -16 -12 -5 1 10 13 8
22 -7 45 -11 17 -20 35 -20 40 1 6 8 -2 16 -17 8 -16 17 -28 20 -28 8 0 0 35
-11 42 -5 4 0 8 13 8 13 0 21 4 17 9 -3 6 -14 8 -24 6 -15 -3 -18 1 -13 17 3
14 1 19 -6 14 -7 -4 -12 -14 -12 -22 0 -8 -4 -14 -10 -14 -5 0 -7 8 -3 18 3 9
3 14 -2 10 -11 -10 -12 -52 -2 -59 5 -3 2 -9 -6 -12 -10 -4 -14 0 -12 11 1 9
-1 24 -6 34 -8 15 8 30 36 32 5 1 11 8 13 17 4 21 -28 34 -40 17 -6 -10 -13
-7 -28 12 -11 14 -20 30 -20 35 0 6 4 3 10 -5 11 -18 60 -22 53 -5 -2 7 -13
10 -25 7 -16 -4 -19 -1 -16 14 2 10 10 18 17 16 7 -1 10 2 6 8 -3 6 -10 8 -15
5 -4 -3 -10 -2 -13 2 -2 5 -2 3 -1 -4 4 -17 -9 -23 -26 -12 -8 5 -10 9 -4 9 7
0 14 9 17 20 3 11 1 18 -3 15 -5 -3 -16 5 -25 19 -10 15 -23 23 -36 21 -19 -4
-39 21 -32 41 2 6 -7 16 -19 22 l-23 12 24 -6 c17 -5 21 -3 16 7 -6 9 -4 11 8
6 9 -3 18 -3 21 1 3 4 -8 9 -24 10 -28 2 -80 -36 -80 -58 0 -9 18 -23 33 -26
4 -1 10 -2 13 -3 4 0 1 -8 -6 -16 -7 -8 -16 -13 -20 -10 -5 3 -10 -3 -12 -12
-3 -15 -5 -14 -10 5 -3 12 -2 20 2 17 16 -10 20 13 4 25 -8 8 -12 20 -9 29 12
30 14 51 4 51 -15 0 -43 30 -35 37 20 20 63 0 58 -28 0 -3 6 -6 14 -6 8 0 14
4 14 9 0 5 4 7 9 4 5 -4 4 7 -2 24 -8 20 -15 26 -22 19 -7 -7 -5 -13 5 -19 8
-5 11 -13 6 -17 -5 -4 -11 -2 -13 5 -3 7 -10 18 -16 25 -15 16 -21 40 -7 32 5
-3 10 -1 10 4 0 6 -9 11 -20 11 -11 0 -20 5 -20 10 0 6 -5 10 -11 10 -5 0 -7
-5 -3 -11 4 -6 -1 -9 -12 -8 -24 4 -76 -30 -67 -44 4 -6 1 -7 -7 -2 -10 6 -8
12 9 26 13 11 17 20 11 24 -7 5 -5 11 6 19 11 9 14 18 9 27 -7 12 -6 12 9 0
15 -13 16 -15 2 -23 -9 -5 -16 -14 -16 -20 0 -7 4 -7 13 1 8 6 17 8 20 4 4 -3
7 -1 7 5 0 6 9 13 19 17 11 3 23 15 27 27 5 16 8 18 15 7 5 -8 2 -20 -7 -30
-13 -15 -13 -17 1 -23 39 -15 45 2 20 50 -8 16 -15 38 -15 49 0 14 -7 21 -21
21 -18 0 -18 -2 -5 -12 17 -12 22 -26 9 -22 -5 1 -18 -3 -29 -10 -12 -6 -25
-8 -29 -4 -4 4 -6 0 -3 -8 3 -8 10 -16 16 -16 7 -1 17 -2 24 -3 9 -1 9 -4 0
-13 -14 -14 -51 15 -50 40 1 10 -2 28 -6 41 -7 19 -5 23 7 18 9 -3 18 1 21 9
7 18 -15 18 -40 -1 -14 -11 -16 -17 -6 -23 13 -9 12 -85 -2 -99 -4 -5 -6 9 -5
29 2 20 0 40 -4 44 -4 4 -7 2 -7 -4 0 -7 -10 -10 -22 -8 -13 1 -23 8 -23 14 0
6 -3 14 -7 18 -5 4 -8 1 -8 -6 0 -7 -3 -10 -7 -7 -3 4 -12 2 -19 -4 -9 -8 -11
-5 -7 10 3 11 10 18 17 15 7 -3 12 5 11 20 0 31 -15 47 -15 17 0 -13 -4 -19
-10 -16 -6 4 -19 1 -28 -6 -9 -7 -4 0 11 16 18 16 25 30 19 34 -14 9 1 33 18
29 7 -2 17 8 21 22 8 28 9 27 13 -10 4 -31 -3 -52 -15 -44 -5 3 -7 9 -5 13 3
4 -1 8 -9 8 -8 0 -15 -4 -15 -7 0 -14 28 -30 42 -25 9 4 18 -1 21 -9 7 -17 44
-14 61 5 8 9 8 10 -2 5 -12 -7 -42 15 -42 32 0 13 -39 62 -50 62 -4 0 -10 -9
-13 -20 -3 -11 -11 -20 -17 -20 -10 0 -10 3 -1 14 9 11 9 16 0 21 -8 6 -7 10
4 16 15 9 12 49 -4 49 -5 0 -6 -7 -3 -15 4 -9 0 -15 -10 -15 -9 0 -16 3 -16 8
1 10 30 48 35 45 3 -2 5 0 5 5 0 4 -3 7 -7 7 -5 1 -21 9 -38 19 -16 9 -22 15
-12 12 9 -3 17 0 17 7 0 7 7 3 15 -7 8 -11 15 -15 15 -9 0 20 -24 31 -48 22
-20 -7 -21 -11 -10 -29 7 -11 18 -18 25 -16 7 3 15 1 18 -3 3 -5 -1 -11 -8
-14 -18 -7 -19 -53 -2 -67 19 -16 19 -30 0 -30 -27 0 -36 -33 -15 -55 19 -20
19 -21 0 -33 -12 -7 -21 -8 -25 -2 -4 6 -1 9 6 8 6 -2 14 3 16 10 3 7 -1 11
-9 10 -7 -2 -12 3 -10 10 1 8 -7 16 -19 19 -19 5 -19 7 10 19 17 7 31 18 31
25 0 7 -9 5 -26 -6 -15 -9 -23 -12 -20 -6 11 18 -6 13 -19 -6 -9 -13 -14 -13
-20 -3 -5 8 -4 11 2 7 16 -10 24 18 10 33 -9 10 -9 11 0 6 6 -3 14 -2 18 4 3
5 12 10 18 10 7 0 4 -7 -6 -14 -15 -12 -16 -14 -2 -20 11 -4 19 3 25 20 13 34
13 39 -7 55 -15 12 -16 12 -11 -7 4 -17 2 -21 -14 -16 -13 3 -16 8 -9 15 5 5
7 16 4 23 -7 19 6 18 29 -3 11 -10 18 -12 18 -4 0 15 -64 54 -68 41 -3 -7 -9
-7 -18 1 -11 9 -19 8 -35 -7 -14 -13 -19 -14 -17 -5 2 8 -6 19 -17 25 -12 6
-21 21 -22 34 0 12 -1 28 -2 35 -1 9 -14 13 -41 12 -31 -1 -37 1 -29 11 6 7 7
19 3 26 -5 8 3 6 19 -4 30 -21 47 -23 47 -7 0 6 -7 8 -16 5 -8 -3 -12 -2 -9 4
3 6 -1 13 -9 16 -9 3 -13 10 -10 16 4 5 13 4 22 -5 10 -8 31 -13 47 -12 41 3
42 4 26 14 -9 6 -22 6 -32 1 -12 -7 -21 -5 -30 8 -13 15 -12 16 3 4 14 -11 19
-9 37 17 15 21 18 32 10 37 -7 4 -9 3 -5 -4 3 -6 1 -14 -5 -18 -8 -5 -10 1 -7
20 4 19 0 29 -14 37 -10 5 -22 7 -27 5 -5 -3 -12 1 -15 10 -3 8 -2 12 4 9 6
-3 10 -1 10 4 0 6 5 11 11 11 5 0 7 -5 3 -12 -4 -7 -3 -8 4 -4 9 5 9 13 2 27
-10 18 -23 27 -17 12 5 -17 -42 -51 -62 -46 -16 4 -21 1 -20 -13 0 -11 3 -14
6 -7 3 8 10 9 21 3 34 -18 69 -22 65 -8 -2 4 5 4 14 1 10 -4 12 -8 5 -11 -8
-2 -8 -11 -1 -28 12 -33 12 -34 -7 -34 -9 0 -12 5 -8 13 6 10 4 10 -7 0 -16
-16 -33 -17 -23 -2 4 7 1 10 -7 7 -8 -3 -13 -10 -12 -16 2 -8 -5 -9 -23 -2
-32 13 -35 12 -31 -1 1 -6 -8 -13 -20 -15 -19 -3 -23 1 -23 20 0 14 5 28 10
31 7 4 8 -3 4 -22 -5 -23 -4 -26 7 -16 20 20 19 42 -3 49 -14 4 -19 13 -17 32
2 15 0 32 -3 37 -4 6 -3 17 2 25 4 7 5 23 0 35 -5 12 -4 28 1 36 10 16 11 15
13 -23 0 -14 4 -29 8 -33 4 -4 4 -13 1 -21 -3 -8 0 -14 5 -14 6 0 9 14 7 30
-3 25 -1 30 17 30 16 0 18 3 9 14 -18 21 2 27 34 10 28 -14 28 -14 12 4 -9 10
-15 21 -12 24 3 3 -13 4 -35 4 -22 -1 -40 2 -40 6 0 5 -9 -1 -20 -12 -12 -12
-26 -18 -31 -14 -8 4 -7 9 2 15 7 4 16 6 20 3 4 -2 7 4 6 15 0 11 -6 17 -14
14 -7 -3 -13 -1 -13 4 0 5 -9 9 -20 10 -11 1 -20 -3 -20 -9 0 -30 -14 8 -15
40 -1 37 20 76 36 66 16 -10 9 5 -15 31 -17 18 -26 22 -29 13 -4 -10 -8 -10
-15 1 -7 10 -6 21 4 36 12 18 12 22 0 22 -7 0 -13 -7 -12 -15 1 -8 -5 -17 -13
-20 -8 -3 -11 0 -7 6 3 6 1 14 -5 18 -7 4 -9 3 -5 -4 3 -6 1 -14 -5 -17 -6 -4
-13 2 -16 14 -3 11 -9 18 -14 15 -5 -3 -6 -10 -3 -16 5 -7 2 -8 -5 -4 -9 6 -9
12 2 24 8 10 14 25 14 35 0 20 0 20 -15 5z m-132 -73 c0 -1 -9 -5 -19 -8 -13
-3 -18 -1 -14 9 4 10 33 10 33 -1z m111 -55 c13 7 19 7 19 0 0 -5 -7 -10 -15
-10 -8 0 -18 0 -22 -1 -4 0 -8 4 -9 10 -2 7 0 7 3 1 3 -7 11 -7 24 0z m94 0
c10 8 13 4 13 -15 0 -14 -5 -25 -10 -25 -5 0 -7 -4 -4 -9 4 -5 -2 -8 -11 -6
-10 2 -20 4 -23 4 -3 1 -6 11 -7 23 -2 23 19 45 25 27 3 -6 8 -6 17 1z m49 1
c3 -5 -1 -14 -9 -21 -13 -10 -15 -9 -15 9 0 21 14 28 24 12z m-194 -31 c0 -5
-2 -10 -4 -10 -3 0 -8 5 -11 10 -3 6 -1 10 4 10 6 0 11 -4 11 -10z m-293 -40
c7 -8 12 -19 12 -25 0 -5 -4 -2 -10 8 -6 9 -14 15 -19 12 -4 -3 -10 2 -14 10
-7 19 15 15 31 -5z m163 -45 c0 -4 -9 4 -20 18 -11 14 -20 28 -20 32 0 4 9 -4
20 -18 11 -14 20 -28 20 -32z m24 44 c-4 -7 0 -9 14 -5 17 6 21 3 19 -13 0
-11 -5 -17 -10 -14 -4 3 -14 -3 -21 -12 -10 -14 -12 -11 -13 19 0 20 4 36 9
36 5 0 6 -5 2 -11z m-201 -23 c8 5 7 2 -1 -7 -11 -12 -14 -12 -22 1 -5 8 -10
20 -10 25 1 6 5 2 11 -8 6 -9 16 -14 22 -11z m475 12 c-2 -6 -10 -14 -16 -16
-7 -2 -10 2 -6 12 7 18 28 22 22 4z m-391 -13 c5 -4 2 -5 -6 0 -11 6 -13 4 -8
-9 6 -14 3 -15 -14 -6 -11 6 -17 15 -14 20 6 10 31 7 42 -5z m57 -27 c-5 -7
10 -12 29 -9 4 0 7 -4 7 -10 0 -6 9 -9 20 -6 11 3 18 2 15 -3 -3 -4 -22 -8
-42 -8 -21 0 -32 3 -25 5 8 3 5 10 -9 22 -18 14 -19 18 -6 18 9 0 14 -4 11 -9z
m-259 -19 c-6 -32 -12 -34 -12 -4 0 14 3 25 8 25 4 0 6 -10 4 -21z m224 5 c10
6 8 -25 -3 -42 -4 -6 -13 -12 -19 -11 -9 0 -9 2 0 5 6 3 9 19 7 37 -2 18 -1
26 2 19 3 -6 9 -10 13 -8z m419 -24 c-22 -19 -22 -19 -3 -21 11 -1 22 -1 25
-1 3 0 7 -8 7 -19 2 -21 1 -22 -21 -13 -9 3 -13 10 -10 15 3 5 0 9 -5 9 -6 0
-11 -7 -11 -15 0 -8 5 -15 11 -15 5 0 7 -5 3 -11 -4 -7 -9 -7 -13 -2 -3 5 -14
12 -23 16 -18 6 -17 49 2 55 6 2 7 9 4 14 -4 7 -2 8 4 4 7 -4 12 -1 12 9 0 13
4 14 20 5 21 -11 21 -11 -2 -30z m-744 -5 c3 -8 1 -15 -4 -15 -6 0 -10 7 -10
15 0 8 2 15 4 15 2 0 6 -7 10 -15z m143 -7 c-3 -8 -6 -5 -6 6 -1 11 2 17 5 13
3 -3 4 -12 1 -19z m99 -3 c-3 -24 -12 -27 -27 -8 -8 9 -9 14 -2 10 6 -4 14 -3
18 3 9 14 14 12 11 -5z m590 -8 c1 -8 -5 -18 -13 -21 -10 -4 -13 -2 -10 8 3 7
1 18 -5 24 -7 7 -5 10 7 8 10 -1 19 -10 21 -19z m-441 3 c-4 -6 -1 -19 6 -28
12 -16 12 -16 -5 0 -16 14 -15 38 0 38 3 0 2 -5 -1 -10z m-379 -22 c4 4 3 0
-4 -10 -10 -13 -10 -17 0 -21 9 -4 9 -6 1 -6 -6 -1 -15 4 -18 9 -3 6 -11 10
-16 10 -6 0 -7 -6 -3 -12 11 -17 9 -47 -3 -78 -6 -14 -8 -29 -5 -35 3 -5 -2
-4 -11 4 -18 15 -23 26 -7 16 6 -3 10 3 10 14 0 12 3 21 8 21 4 0 7 11 7 25 0
14 -3 25 -7 25 -12 0 -9 19 5 34 7 9 16 11 23 5 6 -5 15 -5 20 -1z m274 -10
c0 -6 -6 -5 -15 2 -8 7 -15 14 -15 16 0 2 7 1 15 -2 8 -4 15 -11 15 -16z m241
-1 c-10 -9 -11 -8 -5 6 3 10 9 15 12 12 3 -3 0 -11 -7 -18z m-474 -3 c-3 -3
-12 -4 -19 -1 -8 3 -5 6 6 6 11 1 17 -2 13 -5z m421 -19 c-3 -3 -9 2 -12 12
-6 14 -5 15 5 6 7 -7 10 -15 7 -18z m-518 -27 c0 -7 -5 -6 -13 1 -8 6 -18 7
-22 3 -5 -4 -5 -2 -1 5 8 14 36 6 36 -9z m117 9 c0 -8 -6 -14 -14 -14 -9 0
-10 4 -2 14 6 7 12 13 14 13 1 0 2 -6 2 -13z m173 -9 c11 -3 9 -6 -6 -10 -15
-4 -20 0 -22 16 0 11 2 16 6 10 4 -6 14 -13 22 -16z m-93 -10 c-3 -8 -6 -5 -6
6 -1 11 2 17 5 13 3 -3 4 -12 1 -19z m20 0 c-3 -8 -6 -5 -6 6 -1 11 2 17 5 13
3 -3 4 -12 1 -19z m-244 -13 c-3 -9 -8 -14 -10 -11 -3 3 -2 9 2 15 9 16 15 13
8 -4z m462 6 c3 -5 0 -13 -6 -17 -8 -5 -9 -3 -4 6 6 10 4 12 -8 7 -10 -3 -17
-2 -17 3 0 13 27 13 35 1z m150 -1 c4 -6 11 -8 16 -5 5 3 6 -1 3 -9 -7 -18
-25 -22 -21 -5 1 6 -4 14 -12 17 -9 3 -11 0 -6 -8 5 -9 4 -11 -4 -6 -12 8 -6
26 9 26 5 0 12 -5 15 -10z m-438 -15 c0 -8 -4 -12 -9 -9 -5 3 -6 10 -3 15 9
13 12 11 12 -6z m226 0 c-3 -9 -8 -14 -10 -11 -3 3 -2 9 2 15 9 16 15 13 8 -4z
m-315 -26 c-3 -8 -7 -3 -11 10 -4 17 -3 21 5 13 5 -5 8 -16 6 -23z m564 9 c-7
-7 -8 -16 -2 -23 7 -8 5 -12 -5 -12 -8 0 -12 4 -9 9 3 4 0 8 -7 8 -7 0 -4 7 7
15 23 17 32 19 16 3z m-172 -8 c0 -5 -5 -10 -11 -10 -5 0 -7 5 -4 10 3 6 8 10
11 10 2 0 4 -4 4 -10z m117 -5 c0 -8 -4 -12 -9 -9 -5 3 -6 10 -3 15 9 13 12
11 12 -6z m233 -4 c14 -26 13 -31 -6 -31 -8 0 -12 5 -9 10 4 6 1 17 -5 25 -8
10 -9 15 -2 15 6 0 16 -9 22 -19z m-905 -9 c-3 -3 -11 0 -18 7 -9 10 -8 11 6
5 10 -3 15 -9 12 -12z m842 -2 c11 -16 10 -18 -2 -14 -8 4 -15 11 -15 16 0 6
-8 4 -17 -3 -16 -13 -17 -12 -4 4 17 22 23 22 38 -3z m-492 -9 c3 -5 2 -12 -3
-15 -5 -3 -9 1 -9 9 0 17 3 19 12 6z m459 -29 c3 -5 -1 -9 -9 -9 -8 0 -12 4
-9 9 3 4 7 8 9 8 2 0 6 -4 9 -8z m-364 -7 c0 -2 -6 -8 -13 -14 -10 -8 -14 -7
-14 2 0 8 6 14 14 14 7 0 13 -1 13 -2z m557 -37 c-3 -8 -6 -5 -6 6 -1 11 2 17
5 13 3 -3 4 -12 1 -19z m-776 -5 c13 -16 12 -17 -3 -4 -10 7 -18 15 -18 17 0
8 8 3 21 -13z m684 8 c6 -1 3 -6 -5 -11 -13 -8 -13 -10 2 -10 9 0 20 5 24 11
4 8 9 8 17 0 8 -8 7 -14 -2 -23 -10 -11 -11 -9 -5 7 6 18 4 17 -21 -5 -16 -14
-25 -19 -20 -11 6 11 4 13 -8 8 -12 -4 -14 -2 -10 10 5 12 2 15 -10 10 -11 -4
-14 -2 -11 8 3 7 13 12 22 10 9 -2 22 -4 27 -4z m-900 -10 c3 -5 2 -12 -3 -15
-5 -3 -9 1 -9 9 0 17 3 19 12 6z m741 -24 c1 -8 -4 -14 -10 -14 -7 0 -12 11
-12 24 0 24 18 16 22 -10z m253 6 c7 -5 -21 -33 -33 -33 -6 0 -3 5 7 11 9 6
15 15 11 21 -4 6 -9 5 -15 -3 -6 -10 -8 -7 -6 8 1 18 4 20 17 10 8 -6 17 -13
19 -14z m-147 -3 c3 -3 1 -13 -6 -22 -11 -15 -13 -14 -13 12 0 17 3 27 6 23 3
-4 9 -10 13 -13z m-885 4 c-3 -3 -12 -4 -19 -1 -8 3 -5 6 6 6 11 1 17 -2 13
-5z m80 -9 c0 -8 -4 -12 -9 -9 -5 3 -6 10 -3 15 9 13 12 11 12 -6z m419 -4 c1
-6 0 -7 -3 -1 -2 5 -9 8 -13 5 -5 -3 -11 -1 -14 4 -4 5 2 8 11 7 9 -2 18 -8
19 -15z m204 15 c0 -2 -7 -7 -16 -10 -8 -3 -12 -2 -9 4 6 10 25 14 25 6z m130
-6 c0 -5 -7 -7 -15 -4 -8 4 -15 8 -15 10 0 2 7 4 15 4 8 0 15 -4 15 -10z
m-956 -26 c3 -8 2 -12 -4 -9 -6 3 -10 10 -10 16 0 14 7 11 14 -7z m1031 -4
c-3 -5 -12 -10 -18 -10 -7 0 -6 4 3 10 19 12 23 12 15 0z m-98 -7 c-4 -3 -1
-13 6 -22 11 -14 10 -14 -5 -2 -16 12 -16 31 -1 31 4 0 3 -3 0 -7z m277 -1 c3
-5 -1 -9 -9 -9 -8 0 -12 4 -9 9 3 4 7 8 9 8 2 0 6 -4 9 -8z m-1251 -16 c4 -10
1 -13 -9 -9 -15 6 -19 23 -5 23 5 0 11 -7 14 -14z m1101 -2 c3 -8 2 -12 -4 -9
-6 3 -10 10 -10 16 0 14 7 11 14 -7z m86 1 c5 -3 10 -1 10 6 0 10 3 10 12 1
21 -21 16 -37 -10 -39 -16 -1 -20 2 -12 7 9 6 8 11 -8 19 -17 9 -23 7 -36 -11
-12 -17 -13 -24 -3 -31 8 -6 9 -10 1 -13 -6 -3 -10 -17 -8 -32 2 -17 1 -20 -3
-7 -3 11 -10 23 -17 27 -7 5 -7 8 -1 8 10 0 14 15 16 63 0 13 7 16 24 13 14
-3 29 -7 35 -11z m-115 -5 c-3 -5 -12 -10 -18 -10 -7 0 -6 4 3 10 19 12 23 12
15 0z m-150 -19 c3 -5 2 -12 -3 -15 -5 -3 -9 1 -9 9 0 17 3 19 12 6z m45 5 c0
-2 -8 -10 -17 -17 -16 -13 -17 -12 -4 4 13 16 21 21 21 13z m107 -28 c2 -17 0
-19 -7 -8 -5 8 -6 18 -4 22 8 12 10 10 11 -14z m-1043 -20 c-5 -7 -12 -5 -21
7 -12 17 -18 13 -14 -9 1 -5 -5 -4 -13 4 -17 14 -22 25 -7 15 5 -3 12 -1 16 5
4 7 13 7 26 0 11 -6 16 -16 13 -22z m957 15 c13 -16 12 -17 -3 -4 -17 13 -22
21 -14 21 2 0 10 -8 17 -17z m-57 -19 c3 -8 2 -12 -4 -9 -6 3 -10 10 -10 16 0
14 7 11 14 -7z m449 -18 c16 -15 23 -28 16 -31 -7 -5 -6 -11 1 -20 9 -10 7
-13 -7 -10 -10 1 -26 -4 -35 -13 -10 -8 -18 -12 -18 -8 0 4 10 16 23 26 22 18
22 19 4 49 -22 37 -18 39 16 7z m-199 -15 c-2 -3 -12 3 -22 13 -16 17 -16 18
5 5 12 -7 20 -15 17 -18z m177 -6 c15 10 10 -2 -8 -16 -10 -8 -14 -9 -10 -2 4
6 3 14 -3 18 -6 4 -7 12 -3 18 5 8 9 6 11 -6 2 -9 8 -15 13 -12z m-1387 -1 c3
-8 2 -12 -4 -9 -6 3 -10 10 -10 16 0 14 7 11 14 -7z m951 7 c3 -5 2 -12 -3
-15 -5 -3 -9 1 -9 9 0 17 3 19 12 6z m381 -13 c5 4 6 3 2 -2 -4 -5 -3 -15 3
-22 7 -8 7 -14 -1 -19 -15 -9 -32 5 -26 22 5 11 1 13 -16 8 -18 -6 -19 -5 -7
8 9 9 18 12 25 6 6 -5 15 -5 20 -1z m-379 -40 c-3 -8 -6 -5 -6 6 -1 11 2 17 5
13 3 -3 4 -12 1 -19z m384 -45 c13 -16 12 -17 -3 -4 -17 13 -22 21 -14 21 2 0
10 -8 17 -17z m-156 -3 c3 -6 -1 -7 -9 -4 -18 7 -21 14 -7 14 6 0 13 -4 16
-10z m202 4 c-3 -3 -12 -4 -19 -1 -8 3 -5 6 6 6 11 1 17 -2 13 -5z m13 -24 c0
-5 -5 -10 -11 -10 -5 0 -7 5 -4 10 3 6 8 10 11 10 2 0 4 -4 4 -10z m204 -30
c-5 -5 -10 3 -11 18 -1 22 0 24 9 8 6 -10 6 -22 2 -26z m-147 -12 c2 -16 0
-19 -6 -9 -5 7 -15 10 -22 7 -8 -4 -5 0 5 8 11 9 20 16 21 16 0 0 2 -10 2 -22z
m-1660 -30 c-3 -7 -5 -2 -5 12 0 14 2 19 5 13 2 -7 2 -19 0 -25z m1838 12 c3
-6 -1 -7 -9 -4 -18 7 -21 14 -7 14 6 0 13 -4 16 -10z m-1708 -32 c-3 -7 -5 -2
-5 12 0 14 2 19 5 13 2 -7 2 -19 0 -25z m-151 9 c4 -4 -2 -7 -14 -7 -11 0 -24
5 -27 10 -7 11 30 8 41 -3z m1659 3 c-3 -5 -12 -10 -18 -10 -7 0 -6 4 3 10 19
12 23 12 15 0z m-1615 -15 c0 -2 -9 -9 -19 -15 -14 -7 -22 -7 -27 2 -4 6 -3 8
2 5 6 -3 16 -2 24 4 17 10 20 11 20 4z m-70 -19 c-15 -15 -12 -30 3 -18 9 7
17 8 27 1 13 -9 13 -10 0 -6 -8 2 -24 -3 -35 -12 -11 -9 -17 -12 -13 -7 4 5 3
16 -2 26 -11 20 -7 27 15 27 11 0 12 -4 5 -11z m1750 -8 c0 -6 -6 -5 -15 2 -8
7 -15 14 -15 16 0 2 7 1 15 -2 8 -4 15 -11 15 -16z m-20 -14 c0 -2 -9 0 -20 6
-11 6 -20 13 -20 16 0 2 9 0 20 -6 11 -6 20 -13 20 -16z m64 -19 c-4 -8 -11
-12 -16 -9 -6 4 -5 10 3 15 19 12 19 11 13 -6z m190 -10 c-3 -7 -12 -11 -19
-8 -11 4 -12 8 -2 18 15 16 28 10 21 -10z m-151 -6 c-6 -6 -9 -19 -6 -28 4
-13 3 -14 -5 -1 -10 14 1 40 16 40 3 0 1 -5 -5 -11z m31 -4 c3 -8 1 -15 -4
-15 -6 0 -10 7 -10 15 0 8 2 15 4 15 2 0 6 -7 10 -15z m-56 -31 c2 -1 0 -4 -5
-7 -4 -3 -17 7 -27 22 l-20 26 25 -20 c13 -11 25 -21 27 -21z m208 -11 c-10
-10 -19 5 -10 18 6 11 8 11 12 0 2 -7 1 -15 -2 -18z m-2099 -14 c-15 -9 -16
-13 -6 -27 11 -14 11 -15 -1 -4 -19 17 -35 15 -21 -2 9 -11 9 -16 -1 -22 -7
-4 -10 -4 -6 1 4 4 3 14 -3 21 -7 9 -4 17 13 28 12 9 27 16 33 16 5 0 2 -5 -8
-11z m1943 5 c0 -8 -19 -13 -24 -6 -3 5 1 9 9 9 8 0 15 -2 15 -3z m-29 -68
l-5 -31 -6 30 c-3 17 -9 29 -13 28 -7 -3 -7 4 0 25 10 24 29 -19 24 -52z m149
31 c0 -7 -4 -6 -10 3 -6 10 -10 11 -10 3 0 -7 -11 -12 -24 -11 -14 1 -22 6
-20 10 3 4 11 5 18 2 8 -3 17 0 21 5 8 13 25 5 25 -12z m-2123 7 c-3 -3 -2
-16 2 -28 7 -18 5 -21 -15 -21 -13 0 -24 2 -24 5 0 9 31 50 37 50 4 0 4 -3 0
-6z m2093 -29 c0 -2 -6 -8 -13 -14 -10 -8 -14 -7 -14 2 0 8 6 14 14 14 7 0 13
-1 13 -2z m-43 -39 c2 -19 1 -19 -8 -3 -6 9 -15 17 -21 17 -7 0 -7 -5 1 -14 8
-10 9 -16 1 -21 -6 -3 -7 -11 -4 -17 4 -7 2 -8 -5 -4 -9 6 -9 11 -1 21 8 9 8
15 0 20 -15 9 -3 24 18 22 11 0 19 -10 19 -21z m-1997 -12 c0 -2 -11 -3 -24
-2 -14 1 -23 5 -20 9 4 7 44 0 44 -7z m1904 7 c3 -5 14 -8 24 -6 9 1 11 0 4
-2 -7 -3 -10 -8 -8 -12 3 -4 0 -13 -6 -21 -8 -13 -9 -12 -5 2 7 20 -17 43 -34
32 -8 -4 -9 -3 -5 4 9 14 23 15 30 3z m145 -63 c-5 -10 -11 -18 -12 -18 -2 0
-3 8 -3 18 0 10 6 19 13 19 8 0 9 -6 2 -19z m71 3 c0 -6 -4 -12 -8 -15 -5 -3
-9 1 -9 9 0 8 4 15 9 15 4 0 8 -4 8 -9z m-2255 -29 c-3 -3 -11 0 -18 7 -9 10
-8 11 6 5 10 -3 15 -9 12 -12z m73 -27 c-3 -3 -9 2 -12 12 -6 14 -5 15 5 6 7
-7 10 -15 7 -18z m2265 -12 c-4 -10 -2 -14 5 -9 6 3 13 3 16 -2 3 -5 -8 -8
-25 -8 -33 0 -38 10 -11 25 22 14 22 14 15 -6z m-2308 -42 c3 -5 2 -12 -3 -15
-5 -3 -9 1 -9 9 0 17 3 19 12 6z m2168 -6 c-3 -9 -8 -14 -10 -11 -3 3 -2 9 2
15 9 16 15 13 8 -4z m111 3 c-5 -8 -2 -9 9 -5 23 9 21 0 -2 -13 -16 -8 -19 -7
-16 8 5 23 4 22 11 22 3 0 2 -5 -2 -12z m66 8 c0 -2 -7 -6 -15 -10 -8 -3 -15
-1 -15 4 0 6 7 10 15 10 8 0 15 -2 15 -4z m-10 -49 c0 -7 -4 -6 -10 3 -8 12
-10 12 -10 1 0 -8 -3 -12 -6 -8 -9 9 6 28 17 22 5 -4 9 -12 9 -18z m-60 -32
c0 -5 -4 -4 -9 4 -6 9 -11 10 -15 2 -4 -6 -12 -9 -17 -5 -5 3 -7 10 -3 15 3 5
10 7 15 4 5 -4 9 0 9 7 0 9 3 9 10 -2 5 -8 10 -19 10 -25z m74 7 c3 -5 -1 -9
-9 -9 -8 0 -15 4 -15 9 0 4 4 8 9 8 6 0 12 -4 15 -8z m-54 -22 c-6 -11 -13
-20 -16 -20 -2 0 0 9 6 20 6 11 13 20 16 20 2 0 0 -9 -6 -20z m76 -48 c-4 -3
-13 3 -21 14 -22 28 -18 37 6 13 11 -11 18 -23 15 -27z m59 38 c3 -5 1 -10 -4
-10 -6 0 -11 5 -11 10 0 6 2 10 4 10 3 0 8 -4 11 -10z m-67 -75 c-3 -3 -9 2
-12 12 -6 14 -5 15 5 6 7 -7 10 -15 7 -18z m-2498 -1 c0 -8 -19 -13 -24 -6 -3
5 1 9 9 9 8 0 15 -2 15 -3z m27 -39 c0 -8 -4 -12 -9 -9 -5 3 -6 10 -3 15 9 13
12 11 12 -6z m2521 -15 c-1 -17 4 -20 22 -10 11 6 20 7 20 2 0 -18 -37 -19
-59 -1 -20 17 -21 18 -2 16 11 0 19 -4 19 -7z m-57 -17 c13 -16 12 -17 -3 -4
-17 13 -22 21 -14 21 2 0 10 -8 17 -17z m-2488 0 c-7 -2 -19 -2 -25 0 -7 3 -2
5 12 5 14 0 19 -2 13 -5z m2525 -18 c-3 -3 -9 2 -12 12 -6 14 -5 15 5 6 7 -7
10 -15 7 -18z m55 -28 c4 3 7 4 7 0 0 -17 -20 -14 -36 6 -19 22 -19 22 2 4 11
-9 24 -14 27 -10z m23 -21 c0 -14 -5 -21 -9 -17 -4 4 -5 15 -1 24 9 24 12 21
10 -7z m-2653 -31 c-3 -9 -8 -14 -10 -11 -3 3 -2 9 2 15 9 16 15 13 8 -4z
m2714 3 c7 -9 5 -22 -7 -40 l-17 -28 0 30 c0 17 4 26 7 19 5 -7 10 -8 14 -1 4
6 -2 15 -11 21 -10 6 -13 11 -7 11 6 0 16 -6 21 -12z m93 -8 c0 -5 -4 -10 -10
-10 -5 0 -10 5 -10 10 0 6 5 10 10 10 6 0 10 -4 10 -10z m-2830 -104 c0 -2 -8
-10 -17 -17 -16 -13 -17 -12 -4 4 13 16 21 21 21 13z m2851 -53 c13 -16 12
-17 -3 -4 -17 13 -22 21 -14 21 2 0 10 -8 17 -17z m-2973 -18 c-3 -3 -9 2 -12
12 -6 14 -5 15 5 6 7 -7 10 -15 7 -18z m26 -46 c-3 -5 -10 -7 -15 -3 -5 3 -7
10 -3 15 3 5 10 7 15 3 5 -3 7 -10 3 -15z m2943 -1 c-3 -8 -6 -5 -6 6 -1 11 2
17 5 13 3 -3 4 -12 1 -19z m74 -15 c13 -16 12 -17 -3 -4 -17 13 -22 21 -14 21
2 0 10 -8 17 -17z m65 -8 c-4 -24 -16 -30 -16 -7 0 12 4 22 9 22 5 0 8 -7 7
-15z m-3146 -25 c0 13 2 13 9 1 11 -16 -7 -51 -26 -51 -19 0 -25 18 -11 39 9
15 14 17 20 8 6 -9 8 -8 8 3z m3180 -41 c0 -5 -5 -9 -11 -9 -5 0 -7 5 -3 12 5
8 2 9 -9 5 -9 -3 -19 -1 -23 5 -4 7 -3 8 4 4 7 -4 12 -2 12 5 0 8 4 8 15 -1 8
-7 15 -16 15 -21z m-3150 -47 c3 -3 -2 -3 -12 1 -9 3 -24 0 -33 -7 -16 -11
-16 -13 1 -27 9 -7 20 -13 23 -11 3 2 7 -2 9 -10 2 -8 1 -9 -5 -3 -11 15 -32
13 -42 -3 -6 -11 -10 -10 -15 4 -4 10 -2 21 5 24 6 4 10 9 10 11 0 2 2 14 5
26 5 19 9 21 28 11 11 -6 23 -13 26 -16z m3224 -4 c-5 -7 -1 -9 9 -5 16 6 16
4 2 -17 -8 -12 -13 -26 -10 -29 3 -4 2 -5 -2 -2 -11 9 -14 77 -3 70 6 -4 7
-11 4 -17z m-3179 3 c3 -5 2 -12 -3 -15 -5 -3 -9 1 -9 9 0 17 3 19 12 6z m-61
-99 c3 -5 -1 -9 -9 -9 -8 0 -12 4 -9 9 3 4 7 8 9 8 2 0 6 -4 9 -8z m3307 -9
c13 -16 12 -17 -3 -4 -17 13 -22 21 -14 21 2 0 10 -8 17 -17z m-3297 -42 c3
-5 -1 -14 -8 -20 -12 -10 -14 -9 -11 6 2 10 4 19 4 21 2 5 10 2 15 -7z m3399
-91 c-3 -12 -8 -19 -11 -16 -5 6 5 36 12 36 2 0 2 -9 -1 -20z m-3433 -16 c0
-8 -19 -13 -24 -6 -3 5 1 9 9 9 8 0 15 -2 15 -3z m-37 -18 c4 -10 1 -13 -8 -9
-8 3 -12 9 -9 14 7 12 11 11 17 -5z m-3 -36 c6 -11 8 -20 6 -20 -3 0 -10 9
-16 20 -6 11 -8 20 -6 20 3 0 10 -9 16 -20z m3583 -3 c3 -7 -3 -13 -14 -14
-15 -1 -16 1 -6 12 15 18 14 18 20 2z m-3588 -35 c-3 -3 -11 0 -18 7 -9 10 -8
11 6 5 10 -3 15 -9 12 -12z m39 -17 c3 -8 0 -14 -7 -12 -7 1 -11 -4 -9 -11 1
-8 -2 -11 -8 -7 -6 4 -5 13 3 25 14 24 13 24 21 5z m3726 -80 c-7 -8 -17 -15
-23 -15 -6 0 -2 7 9 15 25 19 30 19 14 0z m113 -121 c-7 -18 -12 -13 -18 16
-3 18 -2 20 10 10 8 -6 11 -18 8 -26z m52 -13 c3 -5 1 -12 -5 -16 -5 -3 -10 1
-10 9 0 18 6 21 15 7z m-3905 -15 c0 -2 -8 -10 -17 -17 -16 -13 -17 -12 -4 4
13 16 21 21 21 13z m3995 -66 c3 -6 -1 -7 -9 -4 -18 7 -21 14 -7 14 6 0 13 -4
16 -10z m-4022 -105 c-3 -9 -8 -14 -10 -11 -3 3 -2 9 2 15 9 16 15 13 8 -4z
m4102 -4 c3 -5 2 -12 -3 -15 -5 -3 -9 1 -9 9 0 17 3 19 12 6z m-4062 -8 c-7
-2 -19 -2 -25 0 -7 3 -2 5 12 5 14 0 19 -2 13 -5z m-66 -29 c-3 -3 -12 -4 -19
-1 -8 3 -5 6 6 6 11 1 17 -2 13 -5z m60 -150 c-3 -3 -12 -4 -19 -1 -8 3 -5 6
6 6 11 1 17 -2 13 -5z m-7 -18 c0 -3 -4 -8 -10 -11 -5 -3 -10 -1 -10 4 0 6 5
11 10 11 6 0 10 -2 10 -4z m147 -455 c0 -11 -5 -18 -9 -15 -4 3 -5 11 -1 19 7
21 12 19 10 -4z m87 -267 c3 -8 2 -12 -4 -9 -6 3 -10 10 -10 16 0 14 7 11 14
-7z m216 -334 c0 -5 -7 -10 -16 -10 -9 0 -12 -5 -8 -12 5 -7 3 -8 -6 -3 -10 6
-9 11 5 22 22 16 25 16 25 3z m240 -276 c0 -8 -19 -13 -24 -6 -3 5 1 9 9 9 8
0 15 -2 15 -3z"/>
<path d="M12225 14700 c-8 -13 9 -20 24 -11 10 6 9 10 -3 14 -8 3 -18 2 -21
-3z"/>
<path d="M12305 14560 c-21 -23 -28 -50 -14 -50 8 0 12 15 7 24 -2 2 6 13 16
25 11 12 17 21 14 21 -3 0 -13 -9 -23 -20z"/>
<path d="M12766 13732 c-3 -5 1 -9 9 -9 8 0 12 4 9 9 -3 4 -7 8 -9 8 -2 0 -6
-4 -9 -8z"/>
<path d="M10374 12848 c-11 -17 6 -22 22 -7 13 14 13 16 -1 16 -9 0 -18 -4
-21 -9z"/>
<path d="M16290 14856 c0 -2 7 -6 15 -10 8 -3 15 -1 15 4 0 6 -7 10 -15 10 -8
0 -15 -2 -15 -4z"/>
<path d="M12366 14823 c-6 -14 -5 -15 5 -6 7 7 10 15 7 18 -3 3 -9 -2 -12 -12z"/>
<path d="M11877 14814 c2 -7 12 -11 21 -10 21 3 13 20 -10 21 -9 1 -14 -4 -11
-11z"/>
<path d="M12135 14820 c-16 -7 -17 -9 -3 -9 9 -1 20 4 23 9 7 11 7 11 -20 0z"/>
<path d="M16090 14810 c1 -19 20 -30 43 -25 18 5 24 11 19 23 -3 10 -7 12 -10
4 -2 -7 -11 -12 -20 -12 -15 0 -15 2 -2 10 12 7 10 9 -8 7 -12 0 -22 -4 -22
-7z"/>
<path d="M12324 14802 c-10 -7 -27 -42 -20 -42 2 0 11 11 20 25 17 26 17 29 0
17z"/>
<path d="M11866 14783 c-8 -8 -13 -9 -41 -12 -13 -1 -14 -4 -3 -15 7 -8 17
-11 22 -6 5 5 16 6 25 3 14 -4 14 -3 1 6 -13 9 -13 11 2 11 9 0 20 5 23 10 7
12 -18 14 -29 3z"/>
<path d="M12346 14773 c-6 -14 -5 -15 5 -6 7 7 10 15 7 18 -3 3 -9 -2 -12 -12z"/>
<path d="M12417 14783 c-8 -12 30 -29 40 -19 4 3 -1 6 -9 6 -9 0 -18 5 -20 12
-3 9 -6 9 -11 1z"/>
<path d="M12120 14766 c0 -2 7 -7 16 -10 8 -3 12 -2 9 4 -6 10 -25 14 -25 6z"/>
<path d="M12323 14745 c0 -8 4 -12 9 -9 5 3 6 10 3 15 -9 13 -12 11 -12 -6z"/>
<path d="M11745 14740 c4 -6 11 -8 16 -5 14 9 11 15 -7 15 -8 0 -12 -5 -9 -10z"/>
<path d="M11810 14742 c0 -7 -11 -18 -25 -24 -22 -10 -24 -13 -10 -21 12 -6
21 -4 31 10 13 17 14 17 8 -2 -5 -18 -4 -18 6 -2 8 12 8 22 1 35 -6 10 -11 12
-11 4z"/>
<path d="M12476 14739 c4 -8 30 -6 38 2 3 3 -5 5 -19 5 -13 0 -22 -3 -19 -7z"/>
<path d="M15876 14738 c3 -5 10 -6 15 -3 13 9 11 12 -6 12 -8 0 -12 -4 -9 -9z"/>
<path d="M11775 14730 c-3 -6 1 -7 9 -4 18 7 21 14 7 14 -6 0 -13 -4 -16 -10z"/>
<path d="M11980 14724 c0 -8 5 -12 10 -9 6 4 8 11 5 16 -9 14 -15 11 -15 -7z"/>
<path d="M12347 14715 c-5 -11 0 -15 16 -15 12 0 18 4 12 8 -5 4 -13 11 -16
15 -4 4 -9 1 -12 -8z"/>
<path d="M12387 14710 c4 -14 0 -20 -11 -21 -9 -1 -25 -2 -35 -3 -26 -1 -36
-13 -36 -41 -1 -19 4 -22 27 -21 15 1 30 -3 33 -8 3 -7 7 -6 11 2 5 10 9 10
22 0 15 -11 15 -11 4 3 -6 9 -22 15 -35 14 -12 -1 -30 6 -39 17 -10 10 -17 18
-15 19 22 7 37 5 37 -4 0 -7 4 -6 10 3 7 12 12 12 35 0 18 -10 22 -16 13 -22
-9 -5 -10 -8 -1 -8 24 0 22 39 -3 43 -5 1 -7 9 -6 19 2 9 -1 19 -7 22 -5 3 -7
-3 -4 -14z"/>
<path d="M11699 14703 c-13 -16 -12 -17 4 -4 16 13 21 21 13 21 -2 0 -10 -8
-17 -17z"/>
<path d="M11854 14709 c-3 -6 -2 -15 3 -20 5 -5 9 -1 10 11 2 22 -2 25 -13 9z"/>
<path d="M12486 14685 c-11 -8 -15 -15 -9 -15 6 0 16 7 23 15 16 19 11 19 -14
0z"/>
<path d="M12485 14650 c-4 -7 -2 -17 4 -23 9 -9 10 -7 5 8 -7 17 -6 18 8 7 13
-11 18 -11 24 0 4 7 4 10 -1 6 -4 -4 -14 -3 -21 3 -8 7 -14 7 -19 -1z"/>
<path d="M12437 14609 l-29 -30 26 5 c14 3 30 7 35 10 5 4 12 2 16 -3 3 -6 12
-8 20 -4 8 3 15 0 15 -5 0 -6 9 -10 19 -9 11 0 17 5 15 9 -3 5 -9 6 -14 3 -5
-3 -12 0 -15 6 -4 5 -12 8 -19 6 -16 -7 -49 19 -41 32 11 18 1 12 -28 -20z"/>
<path d="M12116 14604 c-3 -9 -6 -17 -6 -18 0 -2 52 0 59 3 2 0 -2 8 -9 16
-16 20 -36 19 -44 -1z"/>
<path d="M12217 14613 c-7 -14 30 -41 44 -32 11 7 10 11 -6 23 -23 17 -32 19
-38 9z"/>
<path d="M11590 14590 c0 -6 7 -10 15 -10 8 0 15 2 15 4 0 2 -7 6 -15 10 -8 3
-15 1 -15 -4z"/>
<path d="M11499 14554 c-10 -13 -10 -17 2 -25 17 -10 31 -7 37 9 2 7 -5 12
-15 12 -15 0 -16 2 -3 10 8 5 10 10 4 10 -6 0 -17 -7 -25 -16z m26 -22 c-3 -3
-11 0 -18 7 -9 10 -8 11 6 5 10 -3 15 -9 12 -12z"/>
<path d="M12500 14538 c0 -4 7 -8 15 -8 8 0 15 4 15 8 0 5 -7 9 -15 9 -8 0
-15 -4 -15 -9z"/>
<path d="M12570 14504 c0 -8 5 -12 10 -9 6 3 10 10 10 16 0 5 -4 9 -10 9 -5 0
-10 -7 -10 -16z"/>
<path d="M12473 14490 c-12 -11 -28 -20 -35 -20 -9 0 -9 3 2 10 8 5 11 13 6
17 -9 9 -38 -26 -30 -38 2 -4 -5 -13 -16 -19 -25 -14 -26 -32 0 -55 11 -10 17
-22 14 -26 -3 -5 3 -6 12 -2 12 4 15 3 10 -5 -11 -19 5 -14 21 6 8 9 12 12 9
6 -6 -13 41 -7 49 6 3 5 -5 6 -17 2 -12 -3 -19 -1 -15 5 7 11 -22 11 -41 -1
-7 -4 -16 -5 -19 -2 -4 3 -1 6 5 6 7 0 12 5 12 10 0 6 -6 9 -12 8 -8 -2 -13 7
-13 22 0 14 6 26 13 26 6 1 15 3 20 4 4 1 10 2 15 1 4 0 6 5 5 12 -2 6 3 11
10 10 6 -2 11 1 10 6 -4 12 7 14 42 8 26 -6 29 -10 27 -41 -1 -20 3 -34 8 -33
6 1 9 10 8 20 -2 10 2 15 7 12 6 -3 10 -3 10 1 0 9 -49 54 -60 54 -4 0 -15 2
-22 5 -8 3 -23 -4 -35 -15z"/>
<path d="M12606 14492 c-3 -5 1 -9 9 -9 8 0 12 4 9 9 -3 4 -7 8 -9 8 -2 0 -6
-4 -9 -8z"/>
<path d="M11386 14468 c3 -5 10 -6 15 -3 13 9 11 12 -6 12 -8 0 -12 -4 -9 -9z"/>
<path d="M27785 14454 c-1040 -85 -1870 -667 -2230 -1565 -260 -647 -237
-1441 60 -2067 335 -704 988 -1204 1785 -1365 233 -48 387 -60 680 -54 281 5
404 19 621 71 1008 238 1736 998 1909 1993 74 428 40 897 -96 1298 -119 352
-298 645 -559 914 -404 416 -924 670 -1551 757 -105 14 -515 26 -619 18z m411
-1145 c602 -83 1052 -537 1150 -1156 24 -157 15 -427 -19 -573 -66 -278 -176
-478 -367 -671 -244 -245 -534 -370 -895 -386 -369 -16 -717 114 -978 366
-208 201 -333 430 -399 735 -32 146 -32 455 0 603 126 583 545 990 1109 1077
109 17 296 20 399 5z"/>
<path d="M32945 14450 c-581 -32 -1077 -220 -1401 -532 -267 -258 -402 -540
-436 -915 -48 -533 210 -963 742 -1237 268 -137 394 -175 1083 -321 298 -64
578 -125 622 -136 258 -66 439 -172 510 -300 26 -47 30 -64 30 -129 0 -65 -4
-85 -34 -144 -103 -209 -372 -339 -737 -353 -394 -15 -697 73 -892 261 -83 80
-140 168 -174 271 -12 39 -23 71 -24 73 -2 5 -1248 -330 -1256 -337 -13 -12
44 -179 102 -298 119 -244 298 -437 547 -592 374 -231 838 -352 1423 -368 559
-15 1055 75 1435 262 177 86 300 171 425 292 169 163 276 328 344 533 62 188
71 249 70 495 0 205 -2 226 -27 318 -30 114 -96 257 -164 360 -26 39 -93 117
-148 172 -195 196 -482 354 -813 449 -51 15 -359 87 -685 162 -727 165 -758
173 -883 234 -127 61 -204 138 -230 227 -65 222 103 452 396 541 202 62 504
54 730 -19 95 -31 226 -101 297 -159 115 -93 210 -235 244 -362 12 -44 15 -47
38 -41 15 3 280 75 591 159 l565 152 -3 33 c-1 18 -19 74 -38 124 -201 508
-664 878 -1302 1039 -285 72 -625 103 -947 86z"/>
<path d="M37510 14440 c-565 -54 -1013 -241 -1325 -554 -208 -209 -326 -424
-385 -704 -30 -137 -37 -376 -16 -502 75 -456 400 -802 960 -1021 175 -69 320
-105 911 -229 316 -66 612 -132 658 -146 253 -80 416 -206 448 -350 38 -168
-110 -368 -347 -467 -159 -67 -325 -92 -559 -84 -313 11 -528 76 -707 213
-102 79 -194 214 -229 334 -7 25 -15 48 -18 52 -4 4 -288 -68 -631 -160 l-625
-168 3 -27 c4 -41 49 -172 88 -255 90 -196 277 -415 474 -555 278 -198 675
-339 1130 -402 156 -22 643 -31 820 -16 898 78 1503 428 1735 1004 115 285
138 638 59 916 -108 380 -426 692 -894 875 -171 66 -271 93 -880 231 -305 70
-599 137 -653 151 -213 53 -341 116 -421 205 -59 65 -79 127 -75 227 10 214
196 383 494 448 116 25 357 23 490 -4 223 -45 374 -121 505 -252 94 -94 146
-175 180 -280 12 -39 27 -70 31 -70 11 0 1172 312 1178 316 8 7 -56 180 -105
279 -260 528 -821 875 -1584 980 -136 19 -570 28 -710 15z"/>
<path d="M12617 14427 c-3 -8 1 -14 8 -14 7 0 11 6 8 14 -3 7 -6 13 -8 13 -2
0 -5 -6 -8 -13z"/>
<path d="M12655 14419 c-4 -6 -5 -12 -2 -15 2 -3 7 2 10 11 7 17 1 20 -8 4z"/>
<path d="M12731 14374 c0 -11 3 -14 6 -6 3 7 2 16 -1 19 -3 4 -6 -2 -5 -13z"/>
<path d="M11268 14353 c7 -3 16 -2 19 1 4 3 -2 6 -13 5 -11 0 -14 -3 -6 -6z"/>
<path d="M12607 14347 c-3 -8 -1 -20 4 -28 6 -10 9 -7 9 14 0 29 -5 35 -13 14z"/>
<path d="M12630 14346 c0 -2 7 -7 16 -10 8 -3 12 -2 9 4 -6 10 -25 14 -25 6z"/>
<path d="M12725 14339 c-4 -6 -4 -13 -1 -16 3 -4 6 -1 6 6 0 7 5 9 12 5 7 -4
8 -3 4 4 -9 15 -13 15 -21 1z"/>
<path d="M12566 14328 c3 -4 9 -8 15 -8 5 0 9 4 9 8 0 5 -7 9 -15 9 -8 0 -12
-4 -9 -9z"/>
<path d="M12677 14314 c-3 -3 -2 -16 3 -29 10 -27 3 -37 -19 -26 -18 10 -51 8
-69 -3 -6 -4 -12 -3 -12 3 0 5 5 13 10 16 6 3 10 12 9 18 0 9 -2 9 -6 0 -2 -7
-11 -13 -18 -13 -7 0 -12 -8 -10 -17 2 -10 4 -21 4 -24 1 -3 8 -6 15 -6 8 0
14 5 13 10 -3 15 54 15 69 0 10 -10 13 -10 17 0 4 7 6 6 6 -4 1 -9 -6 -22 -14
-29 -14 -12 -20 -7 -16 14 1 5 -5 4 -13 -3 -9 -7 -13 -18 -9 -24 3 -6 1 -7 -5
-3 -6 3 -9 16 -7 28 4 16 2 19 -7 10 -15 -15 -19 -42 -7 -42 6 0 8 -4 5 -8 -2
-4 4 -8 14 -8 10 0 18 5 17 11 -1 5 8 9 20 9 12 -1 21 4 20 10 -1 6 4 10 11 8
8 -1 11 1 8 6 -5 9 -18 68 -19 90 0 14 -1 14 -10 6z"/>
<path d="M11183 14283 c0 -7 4 -13 8 -13 4 0 9 6 12 13 3 8 0 14 -7 14 -7 0
-13 -6 -13 -14z"/>
<path d="M12770 14291 c0 -6 4 -13 10 -16 6 -3 7 1 4 9 -7 18 -14 21 -14 7z"/>
<path d="M12534 14271 c4 -5 1 -11 -6 -13 -8 -3 -4 -12 10 -26 12 -12 18 -22
13 -22 -5 0 -8 -6 -7 -12 3 -25 16 -36 35 -31 26 7 23 43 -5 53 -27 11 -38 26
-24 35 12 7 4 25 -11 25 -6 0 -8 -4 -5 -9z m49 -75 c4 -11 1 -13 -10 -9 -12 5
-14 3 -8 -7 5 -8 4 -11 -3 -6 -12 7 -5 36 8 36 4 0 10 -7 13 -14z"/>
<path d="M12705 14190 c-3 -6 1 -7 9 -4 18 7 21 14 7 14 -6 0 -13 -4 -16 -10z"/>
<path d="M12748 14193 c7 -3 16 -2 19 1 4 3 -2 6 -13 5 -11 0 -14 -3 -6 -6z"/>
<path d="M12771 14177 c-8 -10 -7 -14 2 -14 8 0 14 6 14 14 0 7 -1 13 -2 13
-2 0 -8 -6 -14 -13z"/>
<path d="M12805 14121 c-3 -6 -11 -9 -16 -6 -5 4 -9 1 -9 -4 0 -13 10 -14 30
-1 8 5 12 12 8 15 -3 4 -9 1 -13 -4z"/>
<path d="M12858 14123 c7 -3 16 -2 19 1 4 3 -2 6 -13 5 -11 0 -14 -3 -6 -6z"/>
<path d="M11044 14091 c0 -11 4 -17 8 -15 4 3 8 1 8 -5 0 -5 -4 -13 -10 -16
-5 -3 -10 -11 -10 -18 0 -8 3 -8 12 1 15 15 18 72 4 72 -7 0 -12 -9 -12 -19z"/>
<path d="M12780 14086 c0 -2 7 -7 16 -10 8 -3 12 -2 9 4 -6 10 -25 14 -25 6z"/>
<path d="M12817 14050 c-3 -12 0 -20 8 -20 8 0 11 8 8 20 -3 11 -7 20 -8 20
-1 0 -5 -9 -8 -20z"/>
<path d="M12890 14050 c-12 -7 -10 -9 7 -7 12 0 19 5 17 9 -6 10 -6 10 -24 -2z"/>
<path d="M12950 14046 c0 -2 8 -10 18 -17 15 -13 16 -12 3 4 -13 16 -21 21
-21 13z"/>
<path d="M11008 14033 c7 -3 16 -2 19 1 4 3 -2 6 -13 5 -11 0 -14 -3 -6 -6z"/>
<path d="M10940 13990 c-9 -6 -10 -10 -3 -10 6 0 15 5 18 10 8 12 4 12 -15 0z"/>
<path d="M12925 13960 c3 -5 8 -10 11 -10 2 0 4 5 4 10 0 6 -5 10 -11 10 -5 0
-7 -4 -4 -10z"/>
<path d="M10887 13929 c7 -7 15 -10 18 -7 3 3 -2 9 -12 12 -14 6 -15 5 -6 -5z"/>
<path d="M12794 13907 c3 -16 1 -25 -5 -22 -5 4 -7 11 -4 16 4 5 1 9 -4 9 -6
0 -11 -4 -11 -9 0 -12 30 -36 31 -25 0 5 3 2 7 -7 6 -14 9 -15 19 -3 10 10 8
18 -12 41 l-25 28 4 -28z"/>
<path d="M12901 13867 c-1 -11 -6 -15 -13 -11 -7 5 -8 3 -3 -5 10 -16 29 2 22
21 -4 8 -6 7 -6 -5z"/>
<path d="M13015 13831 c-3 -5 -2 -12 3 -15 5 -3 9 1 9 9 0 17 -3 19 -12 6z"/>
<path d="M13010 13755 c-7 -8 -16 -12 -21 -9 -5 3 -9 3 -9 0 0 -2 -3 -12 -7
-22 -7 -19 -6 -18 40 22 7 6 18 9 25 6 17 -5 15 5 -2 11 -8 3 -20 -1 -26 -8z"/>
<path d="M13056 13728 c3 -5 10 -6 15 -3 13 9 11 12 -6 12 -8 0 -12 -4 -9 -9z"/>
<path d="M13015 13720 c-3 -6 1 -7 9 -4 18 7 21 14 7 14 -6 0 -13 -4 -16 -10z"/>
<path d="M13026 13701 c-3 -4 2 -15 12 -23 27 -24 42 -30 42 -19 0 6 -7 11
-15 11 -8 0 -14 3 -14 8 5 28 -12 44 -25 23z"/>
<path d="M12931 13674 c13 -16 29 -19 29 -5 0 5 -9 11 -21 14 -16 4 -18 3 -8
-9z"/>
<path d="M13045 13610 c-3 -6 -3 -10 2 -10 4 0 1 -5 -7 -10 -11 -7 -11 -10 -2
-10 8 0 10 -5 6 -12 -5 -10 -4 -10 6 -1 7 6 18 10 24 9 6 -2 8 -1 3 1 -4 3 -5
8 -3 11 2 4 -2 13 -10 19 -8 8 -15 9 -19 3z"/>
<path d="M13099 13581 c6 -10 17 -23 25 -30 13 -11 13 -9 3 13 -7 14 -18 28
-25 31 -9 3 -10 0 -3 -14z"/>
<path d="M13165 13510 c-3 -6 1 -7 9 -4 18 7 21 14 7 14 -6 0 -13 -4 -16 -10z"/>
<path d="M13236 13421 c-3 -4 6 -7 19 -7 14 0 22 2 19 5 -8 8 -34 10 -38 2z"/>
<path d="M13226 13365 c4 -8 7 -15 9 -15 2 0 5 7 9 15 3 9 0 15 -9 15 -9 0
-12 -6 -9 -15z"/>
<path d="M13275 13371 c-3 -6 5 -15 17 -21 21 -10 21 -10 6 3 -10 8 -15 17
-11 20 3 4 4 7 0 7 -3 0 -8 -4 -12 -9z"/>
<path d="M13295 13300 c3 -5 8 -10 11 -10 2 0 4 5 4 10 0 6 -5 10 -11 10 -5 0
-7 -4 -4 -10z"/>
<path d="M10512 13261 c-11 -7 -10 -9 3 -14 9 -4 14 -3 10 2 -3 5 1 12 7 14 7
3 9 6 3 6 -5 0 -16 -3 -23 -8z"/>
<path d="M10463 13154 c3 -4 -6 -17 -21 -30 -22 -19 -24 -25 -13 -33 8 -5 19
-8 25 -7 6 2 8 1 3 -1 -4 -3 -5 -9 -1 -14 8 -13 -10 -11 -24 3 -6 6 -14 9 -18
6 -3 -4 4 -16 15 -27 16 -16 26 -19 39 -13 9 5 23 7 30 5 7 -3 12 4 12 16 0
13 -6 21 -17 21 -15 0 -15 1 -1 13 29 23 28 43 -4 55 -17 6 -28 9 -25 6z m27
-39 c-14 -16 -48 -26 -55 -15 -3 5 4 14 16 20 17 9 20 9 14 0 -5 -8 -3 -11 6
-8 8 3 13 11 11 17 -1 7 2 10 8 6 8 -5 8 -11 0 -20z"/>
<path d="M13416 13142 c-3 -5 1 -9 9 -9 8 0 12 4 9 9 -3 4 -7 8 -9 8 -2 0 -6
-4 -9 -8z"/>
<path d="M13402 13089 c-10 -16 -10 -19 -1 -13 9 5 11 1 7 -14 -7 -23 16 -62
28 -49 5 4 2 12 -5 16 -9 6 -12 21 -9 45 5 41 -1 45 -20 15z"/>
<path d="M13470 13060 c0 -6 -4 -9 -9 -5 -5 3 -13 0 -17 -6 -5 -8 -3 -9 6 -4
16 10 3 -36 -14 -47 -8 -5 -7 -8 2 -8 7 0 15 6 18 14 3 9 12 12 22 8 15 -5 15
-4 3 12 -12 14 -12 19 -2 26 9 5 10 10 2 14 -6 4 -11 2 -11 -4z"/>
<path d="M10403 13029 c-2 -23 3 -25 10 -4 4 8 3 16 -1 19 -4 3 -9 -4 -9 -15z"/>
<path d="M13500 13015 c0 -8 2 -15 4 -15 2 0 6 7 10 15 3 8 1 15 -4 15 -6 0
-10 -7 -10 -15z"/>
<path d="M13486 12989 c4 -6 0 -15 -7 -21 -11 -7 -10 -8 5 -6 25 4 32 24 11
32 -10 4 -14 2 -9 -5z"/>
<path d="M13535 12970 c11 -5 14 -9 7 -9 -16 -1 -6 -21 10 -21 6 0 8 3 5 7 -4
3 -3 11 3 17 6 8 1 12 -18 13 -24 1 -24 1 -7 -7z"/>
<path d="M10346 12932 c-3 -5 1 -9 9 -9 8 0 12 4 9 9 -3 4 -7 8 -9 8 -2 0 -6
-4 -9 -8z"/>
<path d="M13618 12819 c-10 -10 -15 -19 -10 -19 10 1 42 26 42 34 0 11 -15 5
-32 -15z"/>
<path d="M13680 12815 c0 -8 4 -15 10 -15 5 0 7 7 4 15 -4 8 -8 15 -10 15 -2
0 -4 -7 -4 -15z"/>
<path d="M10326 12812 c-3 -6 -1 -14 5 -17 15 -10 25 3 12 16 -7 7 -13 7 -17
1z"/>
<path d="M10320 12686 c0 -8 -5 -16 -12 -18 -8 -3 -7 -6 3 -10 10 -4 15 1 17
18 1 13 0 24 -3 24 -3 0 -5 -6 -5 -14z"/>
<path d="M13770 12669 c0 -16 29 -41 40 -34 13 8 13 45 0 45 -5 0 -7 -8 -4
-17 5 -17 5 -17 -6 0 -12 19 -30 23 -30 6z"/>
<path d="M10285 12610 c-3 -5 -1 -10 4 -10 6 0 11 5 11 10 0 6 -2 10 -4 10 -3
0 -8 -4 -11 -10z"/>
<path d="M10270 12424 c0 -6 3 -14 8 -18 4 -4 7 -19 7 -32 1 -13 5 -23 10 -22
6 2 8 8 6 13 -2 6 -4 15 -5 20 -3 17 -25 51 -26 39z"/>
<path d="M14005 12420 c3 -5 8 -10 11 -10 2 0 4 5 4 10 0 6 -5 10 -11 10 -5 0
-7 -4 -4 -10z"/>
<path d="M10279 12228 c-1 -5 -2 -11 -3 -15 -1 -5 -5 -14 -9 -21 -5 -7 -5 -12
0 -11 4 1 10 0 13 -1 19 -7 39 -7 34 1 -3 5 -10 6 -16 3 -6 -4 -9 -3 -6 2 3 5
2 18 -3 29 -4 11 -8 17 -10 13z"/>
<path d="M10300 12210 c0 -5 5 -10 11 -10 5 0 7 5 4 10 -3 6 -8 10 -11 10 -2
0 -4 -4 -4 -10z"/>
<path d="M14440 12049 c0 -5 5 -7 10 -4 6 3 10 8 10 11 0 2 -4 4 -10 4 -5 0
-10 -5 -10 -11z"/>
<path d="M10255 11940 c-3 -5 -1 -10 4 -10 6 0 11 5 11 10 0 6 -2 10 -4 10 -3
0 -8 -4 -11 -10z"/>
<path d="M10308 11822 c11 -8 11 -10 -1 -15 -8 -3 -21 0 -28 6 -11 10 -11 9
-1 -4 20 -27 49 -30 48 -6 -1 11 -8 22 -16 24 -12 4 -12 3 -2 -5z"/>
<path d="M10396 11377 c3 -10 9 -15 12 -12 3 3 0 11 -7 18 -10 9 -11 8 -5 -6z"/>
<path d="M10635 10960 c-3 -5 -2 -10 4 -10 5 0 13 5 16 10 3 6 2 10 -4 10 -5
0 -13 -4 -16 -10z"/>
<path d="M10845 10650 c3 -5 8 -10 11 -10 2 0 4 5 4 10 0 6 -5 10 -11 10 -5 0
-7 -4 -4 -10z"/>
<path d="M10920 10546 c0 -8 7 -16 15 -20 13 -4 14 -2 5 14 -13 23 -20 26 -20
6z"/>
</g>
</svg>
